<?xml version="1.0" standalone="no"?>
<!DOCTYPE svg PUBLIC "-//W3C//DTD SVG 20010904//EN"
 "http://www.w3.org/TR/2001/REC-SVG-20010904/DTD/svg10.dtd">
<svg version="1.0" xmlns="http://www.w3.org/2000/svg"
 width="350.000000pt" height="197.000000pt" viewBox="0 0 350.000000 197.000000"
 preserveAspectRatio="xMidYMid meet">

<g transform="translate(0.000000,197.000000) scale(0.100000,-0.100000)"
fill="#000000" stroke="none">
<path d="M3 1952 c0 -9 8 -11 26 -7 40 10 44 21 8 21 -22 0 -34 -5 -34 -14z"/>
<path d="M146 1962 c-9 -9 -7 -134 2 -130 32 12 220 134 212 136 -6 2 -22 -4
-37 -13 -23 -15 -27 -15 -34 -2 -6 10 -27 15 -73 15 -36 0 -67 -2 -70 -6z
m130 -17 c-4 -24 -16 -30 -16 -7 0 12 4 22 9 22 5 0 8 -7 7 -15z m-89 -47 c-3
-8 -6 -5 -6 6 -1 11 2 17 5 13 3 -3 4 -12 1 -19z"/>
<path d="M373 1942 c-23 -15 -75 -47 -115 -71 -40 -25 -115 -71 -166 -104 -83
-54 -92 -63 -90 -89 1 -15 6 -28 11 -28 5 0 3 -7 -4 -17 -13 -15 -12 -15 6 -5
34 18 61 41 48 42 -6 0 -15 -4 -18 -10 -3 -5 -12 -10 -18 -10 -13 1 30 40 43
40 4 0 10 -28 12 -63 9 -110 67 -204 149 -245 l41 -20 -29 -16 -28 -15 57 -1
c31 0 59 4 62 8 2 4 -33 29 -80 56 l-84 48 32 57 c17 31 46 81 64 113 28 48
31 61 24 93 -6 28 -5 38 6 42 8 3 18 2 22 -2 4 -4 1 -10 -5 -12 -14 -5 -18
-43 -5 -43 4 1 20 29 37 63 16 34 31 65 32 68 2 3 -11 10 -29 15 l-32 9 60 40
c82 54 105 86 62 84 -13 0 -42 -13 -65 -27z m-54 -111 c10 -6 0 -8 -30 -5 -35
5 -41 3 -29 -6 13 -10 12 -11 -3 -6 -10 3 -24 6 -30 7 -21 1 27 18 53 18 14 0
32 -3 39 -8z m-5 -30 c4 -5 -3 -7 -14 -4 -23 6 -26 13 -6 13 8 0 17 -4 20 -9z
m-136 -15 c-7 -8 -15 -12 -17 -10 -3 2 -14 -4 -26 -13 -11 -10 -8 -6 7 10 29
27 60 39 36 13z m113 -13 c8 -9 9 -14 2 -10 -6 4 -14 1 -16 -5 -4 -10 -7 -10
-15 0 -7 11 -10 9 -15 -7 -3 -11 1 -25 9 -32 12 -10 12 -14 -2 -30 -10 -12
-15 -29 -12 -48 3 -18 0 -32 -7 -35 -13 -5 -65 83 -65 110 0 9 -5 12 -12 8 -7
-4 -2 5 12 20 40 44 98 58 121 29z m-261 -87 c0 -3 -4 -8 -10 -11 -5 -3 -10
-1 -10 4 0 6 5 11 10 11 6 0 10 -2 10 -4z m87 -48 c-3 -7 -5 -2 -5 12 0 14 2
19 5 13 2 -7 2 -19 0 -25z m20 -140 c-3 -8 -6 -5 -6 6 -1 11 2 17 5 13 3 -3 4
-12 1 -19z"/>
<path d="M482 1958 c-5 -7 -24 -40 -41 -73 -17 -33 -42 -79 -55 -102 -14 -23
-26 -50 -28 -60 -2 -10 -6 -20 -9 -23 -17 -14 -89 -142 -84 -151 10 -15 28
-10 21 7 -3 8 -2 12 4 9 6 -3 10 1 10 9 0 9 4 16 9 16 4 0 13 15 19 33 6 21
10 25 11 12 0 -11 -15 -47 -34 -80 -25 -43 -35 -54 -35 -37 0 34 -17 26 -40
-17 l-20 -40 91 -51 c49 -29 92 -50 95 -47 3 3 -24 22 -60 42 -63 35 -79 57
-57 81 4 5 34 58 66 118 31 61 68 128 82 150 24 37 26 39 39 21 10 -14 14 -15
14 -4 1 10 3 9 11 -4 5 -9 21 -29 35 -44 13 -14 21 -29 18 -32 -4 -3 -9 0 -11
7 -7 18 -34 44 -41 38 -3 -3 2 -14 10 -23 8 -10 18 -25 22 -33 13 -27 -34 34
-55 70 -15 27 -18 29 -14 10 18 -71 100 -148 190 -175 l49 -15 68 45 c64 43
92 68 48 45 -16 -9 -19 -8 -13 6 5 15 2 16 -24 11 -33 -6 -73 1 -73 13 0 4 15
11 33 14 18 3 51 15 72 26 49 25 53 25 29 -1 -19 -22 -19 -22 4 -8 25 16 26
21 11 52 -7 16 -4 14 11 -6 12 -15 27 -24 33 -20 7 4 8 0 4 -11 -4 -10 -7 -21
-8 -24 0 -4 -3 0 -7 10 -6 14 -11 13 -39 -10 l-31 -27 25 -2 c16 0 21 2 13 7
-16 10 3 22 23 14 16 -6 18 -2 114 173 l51 93 -32 -4 c-26 -2 -37 -12 -63 -57
-54 -90 -67 -98 -78 -49 -9 42 -59 76 -119 83 -27 3 -51 9 -55 14 -9 14 -140
17 -156 3 -9 -7 -15 -8 -20 0 -8 13 -20 13 -33 -2z m26 -23 c-3 -3 -9 2 -12
12 -6 14 -5 15 5 6 7 -7 10 -15 7 -18z m102 15 c0 -5 7 -10 16 -10 11 0 13 -6
9 -19 -5 -15 1 -22 30 -32 34 -13 45 -32 25 -44 -5 -3 -10 -13 -10 -21 0 -10
9 -5 25 13 30 34 33 13 4 -28 -11 -16 -18 -36 -15 -44 5 -15 -9 -13 -51 8 -13
6 -26 8 -29 4 -7 -7 -78 29 -93 46 -26 32 -23 64 9 101 30 34 80 50 80 26z
m382 -18 c-7 -2 -12 -10 -12 -18 0 -8 -4 -14 -10 -14 -13 0 -13 6 1 31 5 11
15 16 22 12 8 -5 8 -8 -1 -11z m-502 -33 c0 -5 -8 -9 -17 -8 -11 0 -13 3 -5 6
6 2 9 10 6 15 -4 7 -2 8 4 4 7 -4 12 -11 12 -17z m250 -11 c10 -6 7 -7 -10 -2
-14 3 -32 11 -40 16 -10 6 -7 7 10 2 14 -3 32 -11 40 -16z m205 -38 c-10 -11
-15 -26 -12 -35 4 -8 -3 -24 -16 -35 -28 -27 -33 -11 -9 31 10 19 25 45 32 59
8 16 15 20 18 12 2 -7 -4 -22 -13 -32z m-465 13 c0 -15 -2 -15 -9 -4 -7 11
-11 4 -14 -25 l-4 -39 -1 43 c-2 31 2 42 13 42 8 0 15 -8 15 -17z m29 -48 c0
-5 -4 -3 -9 5 -5 8 -9 22 -9 30 0 16 17 -16 18 -35z m-32 -17 c-3 -7 -5 -2 -5
12 0 14 2 19 5 13 2 -7 2 -19 0 -25z m295 20 c11 9 14 7 15 -8 2 -23 -13 -36
-50 -45 -18 -5 -27 -3 -27 5 0 6 4 8 10 5 6 -3 7 1 4 10 -8 20 16 51 27 34 6
-10 11 -10 21 -1z m-377 -98 c-4 -12 -9 -19 -12 -17 -3 3 -2 15 2 27 4 12 9
19 12 17 3 -3 2 -15 -2 -27z m291 8 c5 -7 3 -8 -6 -3 -7 4 -16 2 -21 -6 -4 -7
-11 -10 -16 -6 -4 5 -1 12 7 17 20 13 27 12 36 -2z m-316 -53 c-7 -9 -15 -13
-17 -11 -7 7 7 26 19 26 6 0 6 -6 -2 -15z m209 -40 c0 -5 -4 -2 -10 8 -6 9
-14 15 -20 12 -10 -7 -13 8 -2 18 7 7 32 -22 32 -38z m61 -30 c14 -8 21 -14
15 -14 -5 0 -21 6 -35 14 -14 8 -20 14 -15 14 6 0 21 -6 35 -14z"/>
<path d="M569 1912 c6 -12 16 -24 23 -28 7 -5 8 -3 3 6 -5 9 -4 11 3 6 9 -5 9
-13 1 -28 -8 -15 -8 -27 0 -45 l11 -25 20 24 c13 15 19 18 20 9 0 -8 3 -12 6
-8 11 11 -33 71 -66 91 -32 18 -32 18 -21 -2z"/>
<path d="M662 1864 c10 -10 20 -15 24 -12 3 4 -5 12 -18 18 -22 12 -22 12 -6
-6z"/>
<path d="M660 1780 c0 -5 5 -10 10 -10 6 0 10 5 10 10 0 6 -4 10 -10 10 -5 0
-10 -4 -10 -10z"/>
<path d="M713 1963 c9 -2 23 -2 30 0 6 3 -1 5 -18 5 -16 0 -22 -2 -12 -5z"/>
<path d="M800 1964 c0 -3 14 -19 30 -36 17 -17 37 -45 45 -62 10 -23 14 -26
14 -11 1 22 -63 115 -79 115 -6 0 -10 -3 -10 -6z"/>
<path d="M1170 1965 c0 -5 7 -16 16 -26 14 -15 18 -15 45 -2 39 20 37 33 -7
33 -25 0 -33 -3 -28 -12 5 -9 2 -9 -9 1 -9 7 -17 10 -17 6z"/>
<path d="M1403 1963 c9 -2 23 -2 30 0 6 3 -1 5 -18 5 -16 0 -22 -2 -12 -5z"/>
<path d="M1670 1965 c0 -20 31 -55 48 -54 14 1 14 2 2 5 -9 3 -23 17 -33 32
-9 15 -17 22 -17 17z"/>
<path d="M1998 1963 c6 -2 18 -2 25 0 6 3 1 5 -13 5 -14 0 -19 -2 -12 -5z"/>
<path d="M2066 1958 c3 -4 9 -8 15 -8 5 0 9 4 9 8 0 5 -7 9 -15 9 -8 0 -12 -4
-9 -9z"/>
<path d="M2188 1963 c6 -2 18 -2 25 0 6 3 1 5 -13 5 -14 0 -19 -2 -12 -5z"/>
<path d="M2448 1962 c-16 -2 -28 -5 -28 -8 0 -2 20 -31 45 -65 25 -34 45 -56
45 -51 0 6 -4 14 -10 17 -5 3 -10 15 -10 26 0 11 -4 17 -10 14 -6 -3 -7 1 -3
10 4 12 8 13 13 5 6 -9 9 -9 14 1 3 8 4 1 0 -16 -5 -29 -5 -29 11 -10 16 20
16 19 12 -7 -5 -30 8 -29 16 1 7 29 -60 88 -95 83z"/>
<path d="M2543 1950 c29 -41 255 -271 259 -263 3 4 3 2 1 -6 -2 -7 13 -30 33
-50 27 -27 35 -31 30 -15 -4 14 -2 21 9 21 8 0 15 -8 15 -17 0 -9 6 -22 13
-29 10 -12 8 -13 -8 -7 -11 4 19 -33 66 -81 47 -48 110 -115 140 -148 30 -32
90 -97 133 -142 44 -46 84 -89 88 -96 6 -8 34 16 93 78 46 50 84 95 84 100 0
6 -28 -20 -63 -57 -36 -38 -71 -68 -79 -68 -8 0 -40 28 -71 61 -32 34 -60 58
-64 54 -4 -4 6 -18 21 -31 16 -13 27 -29 25 -35 -2 -5 -27 15 -57 46 -30 31
-51 59 -47 63 4 4 16 -4 26 -18 10 -14 22 -21 26 -17 4 4 -14 29 -40 56 -27
27 -46 54 -42 59 3 6 1 14 -5 18 -8 4 -9 3 -5 -4 4 -7 5 -12 2 -12 -6 0 -120
119 -124 129 -1 5 11 8 27 9 45 1 161 69 161 94 0 5 -13 -2 -30 -15 -16 -14
-40 -29 -52 -33 -12 -3 -28 -13 -36 -20 -7 -8 -21 -14 -30 -13 -12 0 -11 3 6
9 12 5 22 14 22 20 0 5 6 10 14 10 8 0 21 9 29 20 8 11 16 17 20 14 3 -3 3 3
0 14 -3 12 2 31 11 43 15 22 15 21 9 -15 -6 -36 -5 -38 14 -28 11 6 23 9 27 5
7 -7 44 73 52 115 l6 29 61 -66 c34 -37 87 -95 118 -129 31 -34 59 -62 63 -62
3 0 6 14 6 30 0 25 -23 55 -132 173 -73 78 -150 162 -170 185 -21 23 -43 42
-49 42 -7 0 0 -12 15 -27 32 -31 27 -44 -5 -14 -13 12 -27 21 -31 21 -5 0 -7
3 -5 8 9 13 -151 8 -164 -5 -16 -16 -4 -17 24 -1 20 10 21 10 8 -5 -7 -10 -22
-17 -32 -17 -20 0 -48 -14 -85 -40 -11 -8 2 6 28 33 27 26 45 47 40 47 -15 0
-92 -80 -108 -112 -8 -16 -12 -39 -9 -51 5 -17 4 -19 -4 -7 -8 12 -11 7 -11
-19 l0 -35 -34 33 c-19 18 -36 45 -39 61 -4 18 -16 32 -36 41 -16 7 -27 17
-25 21 3 5 -9 22 -27 39 -26 25 -39 29 -75 28 -38 -2 -41 -5 -31 -19z m107
-73 c13 -5 13 -6 0 -6 -9 -1 -36 20 -60 47 l-45 47 45 -41 c25 -23 52 -44 60
-47z m-35 73 c-3 -5 -12 -10 -18 -10 -7 0 -6 4 3 10 19 12 23 12 15 0z m9 -22
c-5 -8 -1 -9 12 -4 14 5 16 4 7 -5 -13 -13 -37 -3 -28 12 4 5 8 9 11 9 3 0 2
-5 -2 -12z m515 -7 c11 -11 27 -35 37 -52 16 -31 15 -35 -1 -66 -19 -34 -31
-41 -37 -22 -4 12 -30 -9 -46 -38 -6 -9 -15 -13 -21 -8 -9 5 -7 11 6 20 10 7
15 17 10 21 -4 4 -7 2 -7 -4 0 -7 -13 -12 -30 -12 l-30 0 20 -20 c11 -11 20
-24 20 -30 0 -17 -27 0 -40 26 -7 13 -19 24 -27 24 -19 0 -16 -6 15 -36 18
-17 23 -28 15 -31 -9 -3 -10 -10 -3 -24 16 -30 -14 -24 -39 7 -14 18 -18 31
-12 42 5 8 6 23 4 33 -3 11 0 19 6 19 6 0 11 9 11 20 0 11 4 20 9 20 5 0 8 8
7 17 -2 10 14 34 36 53 21 20 38 42 38 48 0 19 38 14 59 -7z m80 -44 c0 -9 -2
-8 -6 1 -2 6 -10 9 -15 6 -7 -4 -8 -2 -4 5 9 13 26 5 25 -12z m-219 9 c0 -3
-4 -8 -10 -11 -5 -3 -10 -1 -10 4 0 6 5 11 10 11 6 0 10 -2 10 -4z m-70 -16
c0 -5 -5 -10 -11 -10 -5 0 -7 5 -4 10 3 6 8 10 11 10 2 0 4 -4 4 -10z m-232
-24 c-14 -10 -15 -15 -5 -25 9 -10 8 -11 -5 -6 -9 4 -19 13 -22 21 -3 8 -2 13
3 10 5 -3 14 1 21 9 7 9 16 13 19 9 3 -3 -2 -11 -11 -18z m522 -1 l1 20 9 -20
c5 -11 9 -27 9 -35 1 -13 0 -13 -9 0 -5 8 -13 11 -17 6 -4 -4 1 -15 12 -23 17
-14 18 -15 2 -9 -10 3 -21 6 -23 6 -2 0 -4 17 -3 38 0 30 2 33 9 17 l9 -20 1
20z m-263 -27 c-3 -8 -6 -5 -6 6 -1 11 2 17 5 13 3 -3 4 -12 1 -19z m9 -33
c-11 -18 -23 -31 -25 -29 -2 2 4 15 13 28 9 14 16 33 16 43 0 14 2 15 9 4 6
-8 1 -25 -13 -46z m-32 -157 c5 -10 13 -18 20 -18 6 0 3 -5 -8 -11 -27 -16
-46 9 -56 72 l-8 54 -1 -43 c0 -25 -5 -41 -11 -37 -12 8 -6 53 11 85 32 58 34
57 40 -15 3 -38 9 -78 13 -87z m-107 95 c-3 -10 -5 -2 -5 17 0 19 2 27 5 18 2
-10 2 -26 0 -35z m110 -5 c-3 -8 -6 -5 -6 6 -1 11 2 17 5 13 3 -3 4 -12 1 -19z
m167 -8 c-10 -16 -20 -28 -22 -26 -4 5 28 56 35 56 2 0 -4 -13 -13 -30z m107
-13 c-10 -9 -11 -8 -5 6 3 10 9 15 12 12 3 -3 0 -11 -7 -18z m-357 -42 c3 -8
1 -15 -4 -15 -6 0 -10 7 -10 15 0 8 2 15 4 15 2 0 6 -7 10 -15z m636 -81 c0
-3 -7 -1 -15 6 -8 7 -15 17 -15 22 0 5 7 3 15 -6 8 -8 15 -18 15 -22z m-476
-14 c-6 -5 -24 21 -24 34 0 6 6 1 14 -10 8 -10 12 -21 10 -24z m-41 -15 c21
-20 37 -41 37 -46 0 -6 5 -7 10 -4 6 3 10 -1 10 -9 0 -23 -17 -20 -25 4 -6 18
-17 24 -37 21 -5 0 -8 3 -8 8 0 4 -12 20 -26 35 -18 18 -22 26 -12 26 8 0 31
-16 51 -35z m132 -140 c32 -36 55 -68 52 -71 -8 -8 -76 68 -77 85 0 8 -3 11
-7 8 -6 -7 -32 21 -33 36 0 14 8 7 65 -58z m205 -229 c0 -5 -7 -3 -15 4 -8 7
-15 20 -15 28 0 13 3 12 15 -4 8 -10 15 -23 15 -28z"/>
<path d="M3125 1829 c-6 -19 -8 -19 -24 -5 -16 14 -61 23 -61 11 0 -2 5 -15
11 -28 10 -22 14 -24 43 -13 26 9 66 41 66 53 0 1 -6 3 -14 3 -8 0 -18 -9 -21
-21z"/>
<path d="M2920 1610 c0 -5 5 -10 11 -10 5 0 7 5 4 10 -3 6 -8 10 -11 10 -2 0
-4 -4 -4 -10z"/>
<path d="M2665 1960 c3 -5 11 -10 16 -10 6 0 7 5 4 10 -3 6 -11 10 -16 10 -6
0 -7 -4 -4 -10z"/>
<path d="M2720 1960 c0 -6 7 -10 15 -10 8 0 15 2 15 4 0 2 -7 6 -15 10 -8 3
-15 1 -15 -4z"/>
<path d="M3335 1950 c-3 -11 -11 -20 -16 -20 -5 0 -8 -17 -7 -37 1 -37 1 -37
5 -5 4 32 17 43 26 20 2 -7 4 4 4 25 -1 42 -3 45 -12 17z"/>
<path d="M3435 1960 c-4 -6 -3 -10 2 -9 22 4 32 -2 27 -16 -5 -11 -2 -13 10
-9 16 6 16 8 0 25 -19 21 -30 24 -39 9z"/>
<path d="M1590 1951 c-8 -6 -18 -7 -22 -5 -4 3 -8 -4 -8 -15 0 -15 -6 -21 -22
-20 -17 1 -19 2 -5 6 29 8 20 31 -10 26 -57 -9 -73 -14 -73 -23 0 -6 9 -6 25
0 15 6 26 6 30 0 7 -11 -15 -16 -98 -25 -32 -4 -56 -9 -53 -12 8 -8 227 17
251 28 16 8 15 8 -7 4 -16 -3 -28 -1 -28 5 0 5 9 10 20 10 11 0 20 7 20 15 0
17 0 18 -20 6z"/>
<path d="M1945 1955 c-5 -2 -30 -9 -55 -15 l-45 -12 24 -19 c23 -19 23 -19 2
-19 -12 0 -21 -4 -21 -8 0 -5 20 -4 45 2 47 11 64 27 20 18 -19 -3 -25 0 -25
14 0 16 2 17 10 4 8 -12 10 -12 10 5 0 17 2 17 10 5 6 -9 10 -10 10 -3 0 6 12
16 28 21 15 6 20 10 12 10 -8 0 -19 -1 -25 -3z"/>
<path d="M2040 1951 c0 -6 6 -11 13 -12 6 0 -6 -7 -28 -14 -40 -14 -40 -14 -5
-9 49 8 110 24 110 29 0 3 -13 2 -30 -1 -18 -4 -36 -1 -45 6 -10 9 -15 9 -15
1z"/>
<path d="M2140 1950 c0 -5 7 -7 15 -4 8 4 15 8 15 10 0 2 -7 4 -15 4 -8 0 -15
-4 -15 -10z"/>
<path d="M1115 1940 c3 -5 13 -10 21 -10 8 0 14 5 14 10 0 6 -9 10 -21 10 -11
0 -17 -4 -14 -10z"/>
<path d="M2375 1940 c-3 -5 -1 -10 4 -10 6 0 11 5 11 10 0 6 -2 10 -4 10 -3 0
-8 -4 -11 -10z"/>
<path d="M100 1924 c0 -8 5 -12 10 -9 6 4 8 11 5 16 -9 14 -15 11 -15 -7z"/>
<path d="M1059 1914 c0 -22 -2 -25 -7 -11 -6 15 -10 13 -25 -13 l-18 -30 56 0
c42 0 65 6 90 23 41 28 38 36 -10 30 -21 -2 -45 3 -60 13 -25 16 -25 16 -26
-12z m32 -19 c5 3 6 -1 3 -9 -4 -10 -17 -15 -33 -15 -22 1 -22 2 -5 6 14 3 21
11 19 21 -1 9 0 11 2 4 3 -7 9 -10 14 -7z"/>
<path d="M1785 1930 c-3 -6 1 -7 9 -4 18 7 21 14 7 14 -6 0 -13 -4 -16 -10z"/>
<path d="M2700 1933 c5 -2 10 -9 10 -14 0 -6 -6 -7 -12 -3 -10 5 -10 4 -1 -6
7 -8 20 -15 29 -16 13 -2 14 0 1 19 -7 11 -19 22 -26 23 -6 1 -7 0 -1 -3z"/>
<path d="M2750 1935 c0 -3 12 -18 26 -33 l26 -27 -18 33 c-16 28 -34 42 -34
27z"/>
<path d="M3420 1929 c0 -8 62 -59 72 -59 2 0 5 6 5 14 0 9 -6 12 -16 8 -14 -5
-14 -4 -1 14 14 17 14 18 -1 6 -13 -10 -18 -10 -28 1 -6 8 -9 16 -6 19 3 2 -2
5 -10 5 -8 0 -15 -4 -15 -8z"/>
<path d="M1337 1923 c-49 -3 -57 -7 -53 -21 3 -9 8 -53 12 -96 4 -44 10 -91
14 -105 8 -26 8 -26 8 4 0 17 -3 57 -7 89 -6 51 -5 62 11 75 10 8 18 21 18 27
0 7 12 11 30 10 17 -1 30 1 30 5 0 4 9 5 20 2 11 -3 20 0 20 6 0 6 -10 10 -22
9 -13 -1 -49 -3 -81 -5z"/>
<path d="M1743 1914 c-3 -8 -1 -25 5 -37 9 -19 10 -17 6 13 -4 27 -3 31 5 20
9 -13 11 -13 11 3 0 21 -18 23 -27 1z"/>
<path d="M1830 1921 c0 -6 4 -13 10 -16 6 -3 7 1 4 9 -7 18 -14 21 -14 7z"/>
<path d="M2318 1923 c20 -8 14 -23 -10 -23 -12 0 -19 -3 -15 -6 3 -4 17 -4 31
0 28 7 26 37 -3 35 -10 0 -11 -2 -3 -6z"/>
<path d="M3235 1919 c4 -6 13 -8 21 -5 9 3 14 -1 15 -12 0 -14 2 -14 10 3 8
17 9 16 6 -7 -3 -16 0 -28 4 -28 5 0 9 14 9 30 0 28 -3 30 -36 30 -22 0 -33
-4 -29 -11z"/>
<path d="M20 1911 c0 -6 4 -13 10 -16 6 -3 7 1 4 9 -7 18 -14 21 -14 7z"/>
<path d="M51 1904 c0 -11 3 -14 6 -6 3 7 2 16 -1 19 -3 4 -6 -2 -5 -13z"/>
<path d="M2271 1904 c0 -11 3 -14 6 -6 3 7 2 16 -1 19 -3 4 -6 -2 -5 -13z"/>
<path d="M1165 1854 c-44 -31 -148 -101 -232 -157 -83 -56 -148 -103 -143
-105 5 -2 31 13 57 33 46 36 50 37 113 32 54 -4 62 -3 47 8 -15 11 -6 19 78
76 61 41 90 66 82 71 -8 5 -8 8 -1 8 6 0 16 11 22 24 10 24 57 45 49 23 -2 -7
-12 -11 -21 -10 -10 0 -15 -2 -12 -5 3 -3 -2 -14 -11 -25 -17 -19 -17 -20 0
-14 9 4 17 2 17 -4 0 -5 -8 -13 -17 -16 -27 -10 -45 -31 -33 -38 16 -10 12
-23 -11 -36 -17 -9 -23 -8 -30 2 -12 19 -11 6 1 -27 8 -21 8 -29 -2 -36 -8 -4
-8 -8 -2 -8 16 0 47 37 40 48 -3 5 1 15 8 21 10 8 16 9 21 1 3 -5 1 -10 -4
-10 -6 0 -11 -4 -11 -10 0 -5 15 0 34 11 22 13 33 26 29 35 -3 8 -7 14 -10 14
-3 0 -3 -6 0 -14 6 -16 -19 -30 -28 -16 -3 4 1 10 7 13 10 3 10 8 -1 18 -9 9
-11 9 -7 2 8 -15 -10 -18 -18 -4 -7 10 37 41 58 41 9 0 16 -12 18 -32 2 -23 5
-28 10 -17 3 9 1 28 -7 42 -10 19 -10 28 -1 37 8 8 7 10 -6 5 -10 -4 -18 -11
-18 -17 0 -5 -5 -6 -11 -2 -8 5 -4 12 10 24 16 11 22 25 19 42 l-3 27 -80 -55z
m-15 -164 c0 -5 -4 -10 -10 -10 -5 0 -10 5 -10 10 0 6 5 10 10 10 6 0 10 -4
10 -10z"/>
<path d="M2225 1901 c3 -5 -3 -12 -12 -14 -12 -3 -8 -5 9 -6 15 0 30 4 34 11
4 7 3 8 -4 4 -7 -4 -12 -2 -12 3 0 6 -5 11 -11 11 -5 0 -8 -4 -4 -9z"/>
<path d="M3406 1869 c-6 -30 0 -40 79 -144 18 -22 20 -13 4 17 -8 15 -8 19 0
13 25 -15 1 46 -37 94 l-40 50 -6 -30z"/>
<path d="M391 1871 c-7 -5 -11 -15 -9 -22 3 -10 8 -7 17 9 13 24 12 26 -8 13z"/>
<path d="M1468 1873 c12 -2 32 -2 45 0 12 2 2 4 -23 4 -25 0 -35 -2 -22 -4z"/>
<path d="M1818 1873 c7 -3 16 -2 19 1 4 3 -2 6 -13 5 -11 0 -14 -3 -6 -6z"/>
<path d="M2560 1858 c0 -15 4 -30 10 -33 6 -4 7 1 3 12 -7 19 -5 18 15 -8 10
-14 9 -16 -8 -15 -12 0 -25 8 -30 16 -8 13 -10 12 -10 -3 0 -11 -5 -15 -11
-11 -7 4 -7 -1 1 -15 9 -19 17 -21 43 -15 70 15 71 16 27 59 l-40 39 0 -26z"/>
<path d="M1345 1860 c-12 -5 1 -6 35 -3 30 3 57 7 59 9 9 8 -75 2 -94 -6z"/>
<path d="M2000 1843 c1 -13 29 -59 30 -48 0 21 -13 55 -21 55 -5 0 -9 -3 -9
-7z"/>
<path d="M2177 1837 c-10 -25 -9 -69 2 -86 5 -8 21 -15 36 -17 27 -3 27 -3 21
47 -4 31 -3 49 4 49 5 0 10 -20 10 -45 0 -56 17 -59 22 -5 5 50 -6 70 -36 68
-22 -2 -24 -7 -22 -47 1 -30 -3 -46 -13 -49 -8 -2 -11 -1 -9 4 3 5 3 29 -1 54
-5 33 -8 40 -14 27z"/>
<path d="M2297 1800 c3 -30 7 -57 9 -59 8 -9 2 75 -6 94 -6 13 -7 1 -3 -35z"/>
<path d="M1027 1833 c-15 -2 -25 -8 -22 -12 6 -11 55 -1 55 10 0 5 -1 8 -2 8
-2 -1 -15 -4 -31 -6z"/>
<path d="M1626 1818 c-3 -13 -5 -39 -4 -58 1 -30 2 -31 5 -7 2 15 8 25 14 22
5 -4 6 8 2 27 -8 42 -9 44 -17 16z"/>
<path d="M1901 1829 c-15 -6 -21 -14 -17 -25 20 -52 19 -64 -7 -64 -14 0 -28
-4 -31 -9 -3 -4 6 -6 19 -3 19 3 27 -1 34 -19 6 -18 5 -26 -8 -31 -13 -6 -13
-8 6 -13 33 -10 17 -35 -23 -35 -19 0 -34 5 -34 12 0 6 -3 9 -6 5 -3 -3 -3
-20 1 -37 9 -41 52 -60 74 -33 13 17 13 17 7 0 -3 -10 -6 -25 -6 -33 0 -8 -7
-14 -16 -14 -8 0 -12 -4 -9 -10 9 -15 35 -12 35 4 0 16 72 28 81 13 4 -5 8 -5
10 2 4 12 35 18 107 20 23 0 42 6 42 12 0 6 -11 8 -27 5 -16 -3 -55 -8 -88
-11 -53 -6 -64 -4 -85 15 -16 14 -19 20 -8 16 25 -7 40 19 45 76 3 41 0 58
-17 80 -11 15 -23 41 -26 58 -7 32 -15 35 -53 19z m28 -55 c4 3 8 -8 8 -24 0
-17 -4 -30 -9 -30 -4 0 -8 6 -8 13 0 6 -3 23 -5 37 -3 14 -3 19 1 12 3 -6 9
-10 13 -8z"/>
<path d="M1960 1836 c0 -2 7 -6 15 -10 8 -3 15 -1 15 4 0 6 -7 10 -15 10 -8 0
-15 -2 -15 -4z"/>
<path d="M2147 1785 c2 -33 7 -62 9 -64 10 -11 10 9 -2 64 l-13 60 6 -60z"/>
<path d="M2760 1831 c0 -10 19 -25 25 -20 1 2 -3 10 -11 17 -8 7 -14 8 -14 3z"/>
<path d="M2 1785 c-1 -25 1 -45 5 -45 5 0 21 10 37 23 25 20 27 26 17 45 -7
13 -21 22 -35 22 -20 0 -23 -5 -24 -45z"/>
<path d="M1818 1803 c-10 -2 -18 -9 -18 -15 0 -6 9 -8 20 -5 11 3 18 1 14 -4
-3 -5 -1 -9 4 -9 5 0 12 9 15 20 5 20 -1 22 -35 13z"/>
<path d="M3360 1796 c0 -13 50 -76 60 -76 5 0 7 7 4 15 -4 8 -2 15 3 15 13 0
45 -59 38 -70 -4 -6 1 -7 11 -3 13 5 16 3 11 -10 -3 -9 -2 -17 3 -17 6 0 10 9
10 20 0 11 -4 20 -9 20 -5 0 -12 8 -16 19 -3 10 -14 28 -24 39 -14 17 -20 19
-30 9 -10 -9 -18 -6 -37 18 -13 17 -24 26 -24 21z"/>
<path d="M966 1774 c-9 -8 -16 -21 -16 -27 1 -7 6 -5 13 4 7 9 19 18 27 21 9
3 10 7 3 11 -6 4 -19 0 -27 -9z"/>
<path d="M1730 1780 c0 -6 -10 -8 -23 -5 -16 4 -31 -1 -48 -15 l-24 -21 55 7
c52 6 103 23 72 24 -7 0 -10 5 -7 10 3 6 -1 10 -9 10 -9 0 -16 -5 -16 -10z"/>
<path d="M2501 1774 c0 -11 3 -14 6 -6 3 7 2 16 -1 19 -3 4 -6 -2 -5 -13z"/>
<path d="M2646 1775 c4 -8 8 -15 10 -15 2 0 4 7 4 15 0 8 -4 15 -10 15 -5 0
-7 -7 -4 -15z"/>
<path d="M1424 1735 c-23 -35 -9 -44 17 -12 23 31 41 34 63 12 23 -23 42 -19
21 5 -27 30 -80 27 -101 -5z"/>
<path d="M2025 1708 c-6 -45 -14 -70 -44 -133 -2 -5 3 -4 11 2 22 18 62 183
45 183 -3 0 -8 -24 -12 -52z"/>
<path d="M2407 1695 c-120 -34 -220 -65 -223 -68 -5 -4 100 -409 126 -487 7
-22 8 -20 7 12 -1 21 3 37 8 37 6 0 9 -10 8 -22 -2 -16 2 -13 15 12 9 19 23
37 31 39 9 3 11 0 6 -9 -4 -8 6 0 23 16 28 27 88 153 78 162 -5 5 -66 -25 -66
-33 0 -3 6 -2 13 2 6 3 -6 -9 -28 -27 -21 -19 -42 -34 -46 -34 -4 0 -11 -3
-15 -7 -4 -5 -11 -8 -15 -8 -10 0 -23 76 -20 121 1 22 -4 41 -14 49 -8 7 -12
17 -9 22 11 17 -7 59 -29 68 -17 7 -18 9 -4 9 21 1 23 29 2 37 -16 7 -21 39
-6 48 4 3 79 26 166 51 166 48 185 48 185 1 0 -17 -2 -18 -10 -6 -11 18 -12 3
-1 -25 7 -18 8 -17 14 7 4 14 14 28 22 32 9 3 13 2 10 -4 -3 -6 -1 -10 4 -10
14 0 13 18 -2 51 l-12 27 -218 -63z m-187 -140 c0 -5 -5 -3 -10 5 -5 8 -10 20
-10 25 0 6 5 3 10 -5 5 -8 10 -19 10 -25z m38 -46 c24 -2 24 -2 5 -6 -27 -5
-30 -28 -5 -42 9 -6 12 -11 5 -11 -18 0 -43 41 -42 70 1 17 3 19 6 8 3 -11 15
-19 31 -19z m42 -89 c0 -5 -9 -10 -20 -10 -23 0 -26 -10 -8 -28 8 -8 8 -12 1
-12 -10 0 -23 22 -23 40 0 5 10 11 23 13 12 2 23 5 25 6 1 0 2 -3 2 -9z m53
-185 c-22 -17 -28 -4 -12 26 10 20 12 21 21 5 7 -13 5 -21 -9 -31z"/>
<path d="M386 1657 c-26 -50 -44 -87 -38 -82 16 16 101 175 94 175 -4 0 -29
-42 -56 -93z"/>
<path d="M2663 1727 c4 -10 7 -25 7 -33 0 -8 8 -14 18 -14 10 0 31 -14 48 -31
26 -28 64 -55 64 -46 0 2 -32 34 -72 73 -39 38 -68 61 -65 51z"/>
<path d="M3270 1731 c0 -7 -4 -9 -10 -6 -16 10 -12 -7 7 -27 15 -17 15 -20 3
-28 -12 -7 -3 -22 45 -72 34 -35 82 -87 109 -116 32 -35 45 -45 40 -30 -8 27
-8 34 2 67 l7 24 -21 -21 c-12 -12 -28 -22 -34 -21 -7 0 -3 7 10 16 25 17 30
38 7 30 -8 -4 -17 -2 -20 3 -6 9 9 15 29 11 10 -2 -6 20 -36 51 -22 22 -29 23
-22 4 3 -8 1 -17 -4 -20 -6 -3 -12 1 -16 9 -3 8 -1 17 4 20 15 9 12 25 -4 25
-8 0 -22 10 -31 23 -12 17 -18 19 -24 9 -6 -10 -10 -10 -20 2 -7 9 -11 21 -8
28 4 8 6 7 6 -4 1 -10 6 -18 11 -18 16 0 12 15 -10 35 -12 11 -20 13 -20 6z
m60 -71 c0 -10 -41 -21 -52 -14 -5 3 -6 8 -4 12 6 10 56 12 56 2z m20 -19 c0
-5 -6 -11 -12 -14 -9 -3 -4 -11 12 -25 19 -15 28 -18 38 -9 15 12 35 -10 25
-27 -4 -6 -8 -5 -11 2 -6 18 -22 14 -22 -5 0 -13 -10 -7 -38 22 -22 22 -37 43
-35 48 3 4 9 5 14 2 5 -4 9 -1 9 4 0 6 5 11 10 11 6 0 10 -4 10 -9z m65 -101
c3 -5 3 -15 -1 -21 -6 -11 -23 6 -24 24 0 10 18 9 25 -3z m32 -55 c0 -8 -4
-12 -9 -9 -4 3 -8 9 -8 15 0 5 4 9 8 9 5 0 9 -7 9 -15z"/>
<path d="M1447 1723 c-14 -14 -6 -19 23 -15 17 2 30 8 30 13 0 10 -43 12 -53
2z"/>
<path d="M1261 1702 c-1 -13 -5 -21 -10 -17 -5 3 -12 1 -16 -5 -3 -5 1 -10 10
-10 18 0 30 23 22 42 -3 7 -6 3 -6 -10z"/>
<path d="M3435 1711 c-3 -5 -1 -12 5 -16 5 -3 10 1 10 9 0 18 -6 21 -15 7z"/>
<path d="M1838 1693 c7 -3 16 -2 19 1 4 3 -2 6 -13 5 -11 0 -14 -3 -6 -6z"/>
<path d="M450 1680 c0 -5 5 -10 11 -10 5 0 7 5 4 10 -3 6 -8 10 -11 10 -2 0
-4 -4 -4 -10z"/>
<path d="M1058 1683 c10 -4 10 -8 1 -19 -16 -19 1 -17 28 4 l23 17 -33 1 c-17
1 -26 -1 -19 -3z"/>
<path d="M1590 1670 l-25 -8 28 -1 c15 -1 27 4 27 9 0 6 -1 10 -2 9 -2 -1 -14
-5 -28 -9z"/>
<path d="M1651 1654 c0 -11 3 -14 6 -6 3 7 2 16 -1 19 -3 4 -6 -2 -5 -13z"/>
<path d="M1721 1654 c0 -11 3 -14 6 -6 3 7 2 16 -1 19 -3 4 -6 -2 -5 -13z"/>
<path d="M1523 1653 c9 -2 23 -2 30 0 6 3 -1 5 -18 5 -16 0 -22 -2 -12 -5z"/>
<path d="M1005 1640 c-16 -7 -11 -9 20 -9 29 -1 36 2 25 9 -17 11 -19 11 -45
0z"/>
<path d="M1408 1638 c-9 -5 -6 -8 9 -8 12 0 24 4 27 8 7 11 -19 11 -36 0z"/>
<path d="M1468 1643 c6 -2 18 -2 25 0 6 3 1 5 -13 5 -14 0 -19 -2 -12 -5z"/>
<path d="M1553 1626 l-22 -23 24 5 c29 5 41 20 29 32 -5 5 -19 -1 -31 -14z"/>
<path d="M1600 1641 c0 -5 5 -13 10 -16 6 -3 10 -2 10 4 0 5 -4 13 -10 16 -5
3 -10 2 -10 -4z"/>
<path d="M871 1619 c-18 -6 -31 -12 -28 -15 5 -6 137 16 137 22 0 7 -75 2
-109 -7z"/>
<path d="M1300 1620 c-35 -7 -35 -7 -5 -9 17 0 37 4 45 9 17 11 11 11 -40 0z"/>
<path d="M1370 1623 c8 -3 19 -11 23 -17 6 -7 7 -6 4 4 -2 8 -12 16 -23 17
-13 2 -15 1 -4 -4z"/>
<path d="M1467 1623 c-4 -6 -1 -14 5 -16 8 -4 7 -6 -4 -6 -9 -1 -19 5 -21 12
-3 7 -6 5 -6 -5 -1 -20 29 -23 64 -8 19 8 19 9 -2 9 -12 1 -23 6 -25 13 -3 9
-6 9 -11 1z"/>
<path d="M1700 1620 c0 -5 7 -7 15 -4 8 4 15 8 15 10 0 2 -7 4 -15 4 -8 0 -15
-4 -15 -10z"/>
<path d="M1755 1600 c8 -16 15 -40 15 -54 0 -14 4 -28 10 -31 6 -4 7 6 3 27
-6 34 -30 88 -39 88 -2 0 2 -13 11 -30z"/>
<path d="M2541 1614 c0 -11 3 -14 6 -6 3 7 2 16 -1 19 -3 4 -6 -2 -5 -13z"/>
<path d="M1668 1613 c7 -3 16 -2 19 1 4 3 -2 6 -13 5 -11 0 -14 -3 -6 -6z"/>
<path d="M41 1594 c0 -11 3 -14 6 -6 3 7 2 16 -1 19 -3 4 -6 -2 -5 -13z"/>
<path d="M1218 1603 c6 -2 18 -2 25 0 6 3 1 5 -13 5 -14 0 -19 -2 -12 -5z"/>
<path d="M1353 1597 c-4 -8 -17 -17 -28 -20 -15 -4 -14 -5 8 -6 15 0 27 3 27
7 0 5 13 7 29 4 16 -2 31 1 35 6 4 6 -2 8 -14 5 -11 -3 -26 0 -34 6 -11 9 -16
9 -23 -2z"/>
<path d="M1086 1584 c-82 -16 -108 -26 -49 -19 44 5 73 -1 73 -17 0 -5 -4 -6
-10 -3 -5 3 -10 1 -10 -4 0 -14 40 -14 74 -1 19 7 26 6 26 -3 0 -9 2 -9 8 -1
4 6 26 15 50 19 32 5 42 11 42 26 0 12 -7 19 -17 18 -11 0 -13 -3 -5 -6 6 -2
12 -9 12 -14 0 -6 -8 -5 -20 1 -16 9 -18 8 -14 -5 4 -11 0 -15 -16 -15 -11 0
-18 5 -15 10 3 6 1 10 -4 10 -6 0 -11 -8 -11 -17 0 -15 -2 -14 -15 3 -13 16
-14 16 -9 2 3 -10 1 -18 -5 -18 -6 0 -11 5 -11 10 0 6 -4 10 -10 10 -5 0 -10
-7 -10 -15 0 -19 -6 -19 -28 3 -17 16 -15 18 38 28 30 6 44 12 30 12 -14 0
-56 -6 -94 -14z"/>
<path d="M2128 1593 c7 -3 16 -2 19 1 4 3 -2 6 -13 5 -11 0 -14 -3 -6 -6z"/>
<path d="M2425 1588 c-27 -15 -35 -28 -35 -60 0 -27 40 -68 67 -68 21 0 63 46
63 70 0 23 -42 70 -62 70 -7 0 -22 -6 -33 -12z m59 -24 c22 -21 20 -47 -4 -69
-40 -37 -95 19 -63 64 17 25 46 27 67 5z"/>
<path d="M2421 1552 c-7 -14 -6 -25 5 -40 18 -27 34 -28 34 -4 0 14 2 15 10 2
8 -12 10 -12 15 2 7 19 -10 58 -26 58 -6 0 -8 -3 -6 -7 3 -5 -2 -14 -10 -22
-13 -12 -14 -11 -8 8 8 26 -1 28 -14 3z"/>
<path d="M2290 1581 c0 -5 5 -13 10 -16 6 -3 10 -2 10 4 0 5 -4 13 -10 16 -5
3 -10 2 -10 -4z"/>
<path d="M3270 1571 c-8 -10 -26 -30 -39 -44 -14 -15 -22 -29 -20 -32 3 -2 24
18 47 45 24 28 39 50 35 49 -4 0 -15 -9 -23 -18z"/>
<path d="M2567 1563 c-3 -10 -24 -101 -47 -202 -34 -151 -40 -185 -28 -193 10
-8 9 -9 -4 -4 -14 4 -20 -4 -28 -37 -6 -23 -13 -48 -15 -54 -2 -7 -2 -13 1
-13 6 0 28 53 26 63 -1 4 2 7 8 7 6 0 10 -4 10 -10 0 -5 25 -8 55 -8 66 2 87
-12 48 -33 -40 -21 -91 -71 -95 -93 -3 -18 -4 -19 -20 -2 -9 9 -15 24 -12 34
5 16 5 15 -6 -1 -6 -9 -8 -22 -5 -27 4 -6 1 -36 -6 -68 -7 -31 -13 -60 -13
-64 -1 -3 -5 -10 -10 -15 -4 -4 -5 11 -1 35 4 26 3 42 -3 42 -12 0 -146 -539
-137 -549 4 -3 10 -6 13 -7 4 0 18 -4 32 -7 68 -18 395 -95 396 -94 1 1 4 23
7 49 4 38 2 48 -10 48 -11 0 -13 5 -8 18 5 9 10 32 13 51 3 21 7 29 12 21 4
-7 3 -26 -2 -42 -6 -16 -8 -32 -4 -35 10 -11 17 4 23 49 3 24 9 48 14 53 4 6
28 91 53 190 25 99 49 191 53 205 6 21 2 19 -27 -14 -36 -40 -36 -40 -129
-408 -20 -81 -40 -150 -44 -154 -4 -4 -80 11 -169 33 l-163 39 1 45 c1 25 25
135 53 244 67 265 64 256 88 272 19 13 20 12 16 -9 -3 -15 3 -30 16 -42 12
-11 21 -15 21 -10 0 5 5 2 10 -6 14 -22 221 -18 256 5 85 55 83 187 -3 242
-15 9 -42 31 -59 48 -23 23 -48 35 -90 43 -72 15 -95 16 -74 2 10 -6 5 -9 -18
-8 -26 1 -32 5 -27 17 16 41 16 68 0 84 -9 9 -13 22 -9 28 4 7 11 1 19 -17
l11 -29 18 28 c10 15 16 37 14 50 -2 13 1 29 9 35 17 16 17 69 1 75 -8 3 -6 6
5 6 19 1 25 41 6 41 -8 0 -8 4 0 14 9 11 9 15 -1 20 -29 12 56 -8 192 -46 131
-37 177 -58 165 -78 -2 -3 -15 -56 -29 -117 -18 -81 -23 -120 -16 -142 5 -18
5 -33 -1 -36 -5 -4 -10 6 -10 22 -1 23 -3 21 -12 -14 -9 -41 -11 -43 -41 -38
l-31 5 28 -16 c22 -12 26 -20 21 -36 -4 -13 -2 -18 4 -14 16 9 24 -47 12 -79
-6 -15 -8 -30 -6 -33 7 -7 12 9 37 113 11 50 21 105 21 123 0 17 4 32 8 32 5
0 12 21 15 48 4 26 10 56 15 67 5 11 10 36 12 55 1 19 6 37 10 41 4 3 -5 19
-20 36 -23 26 -53 38 -207 83 -99 29 -185 55 -192 57 -6 2 -13 -4 -16 -14z m0
-85 c-3 -8 -6 -5 -6 6 -1 11 2 17 5 13 3 -3 4 -12 1 -19z m-4 -33 c-3 -9 -8
-14 -10 -11 -3 3 -2 9 2 15 9 16 15 13 8 -4z m37 -26 c0 -4 -7 -6 -15 -3 -8 4
-15 10 -15 15 0 4 7 6 15 3 8 -4 15 -10 15 -15z m-40 -19 c6 -11 7 -20 2 -20
-6 0 -12 9 -15 20 -3 11 -3 20 -1 20 2 0 8 -9 14 -20z m416 -48 c-12 -11 -18
7 -10 30 l8 23 4 -23 c2 -13 1 -26 -2 -30z m-406 -12 c18 -12 2 -12 -25 0 -13
6 -15 9 -5 9 8 0 22 -4 30 -9z m391 -33 c-8 -8 -11 -7 -11 4 0 20 13 34 18 19
3 -7 -1 -17 -7 -23z m-15 -72 c-4 -25 -12 -45 -18 -45 -6 0 -7 7 -3 18 5 9 10
32 13 50 2 18 7 31 9 28 3 -3 2 -26 -1 -51z m-388 -72 c-3 -16 -48 -27 -48
-11 0 4 10 8 23 8 18 0 19 2 7 10 -13 8 -12 10 3 10 12 0 17 -6 15 -17z m177
-33 c3 -6 -1 -7 -9 -4 -18 7 -21 14 -7 14 6 0 13 -4 16 -10z m-34 -77 c0 -10
3 -13 5 -7 4 9 18 8 52 -3 26 -8 56 -16 67 -16 47 -4 21 -141 -29 -152 -35 -8
-61 1 -61 21 0 15 -8 20 -39 22 -37 3 -38 4 -32 35 5 30 5 31 -9 13 -8 -11
-15 -24 -15 -29 0 -4 -5 -5 -10 -2 -7 4 -7 12 0 25 13 24 14 71 1 51 -5 -8 -7
-19 -5 -26 3 -6 -2 -18 -11 -25 -12 -10 -15 -10 -15 1 -1 9 -6 8 -15 -5 -11
-14 -18 -17 -26 -9 -15 15 8 56 51 89 34 26 28 28 -25 9 -20 -7 -20 -6 -1 9
11 9 32 16 47 16 15 0 29 7 33 16 5 14 8 14 21 0 8 -8 15 -23 16 -33z m54 37
c-3 -5 -11 -10 -16 -10 -6 0 -7 5 -4 10 3 6 11 10 16 10 6 0 7 -4 4 -10z m-72
-192 c-6 -11 -51 -10 -58 1 -3 5 10 9 29 8 19 -1 32 -5 29 -9z m-257 -85 c-4
-17 -28 -102 -31 -113 -1 -3 -5 -24 -9 -47 -5 -25 -13 -43 -21 -43 -11 0 -9
16 7 73 11 39 24 77 29 83 5 6 6 13 3 17 -9 8 6 47 17 47 6 0 8 -8 5 -17z
m-61 -235 c-4 -13 -9 -31 -11 -40 -11 -37 -21 -16 -12 22 6 22 15 40 20 40 5
0 6 -10 3 -22z m407 -23 c3 -16 1 -25 -7 -25 -8 0 -10 9 -7 25 2 14 6 25 7 25
1 0 5 -11 7 -25z m-422 -55 c0 -5 -3 -10 -7 -10 -5 0 -9 -16 -11 -36 -1 -20
-7 -43 -12 -53 -8 -11 -9 -4 -5 29 3 25 8 53 11 63 6 18 24 24 24 7z m406 -27
c-11 -11 -17 4 -9 23 7 18 8 18 11 1 2 -10 1 -21 -2 -24z m-40 -158 c1 -8 -2
-15 -7 -15 -5 0 -9 10 -9 22 0 23 12 17 16 -7z"/>
<path d="M2650 1050 c0 -5 5 -10 11 -10 5 0 7 5 4 10 -3 6 -8 10 -11 10 -2 0
-4 -4 -4 -10z"/>
<path d="M2712 991 c-11 -23 -10 -28 10 -43 22 -16 23 -16 32 8 6 20 4 30 -11
43 -18 17 -19 17 -31 -8z m25 -23 c-3 -8 -6 -5 -6 6 -1 11 2 17 5 13 3 -3 4
-12 1 -19z"/>
<path d="M943 1561 c-46 -8 -69 -21 -35 -21 11 0 22 -3 25 -7 2 -5 2 -2 1 5
-2 7 8 12 26 12 17 0 30 5 30 10 0 6 -1 9 -2 9 -2 -1 -22 -5 -45 -8z"/>
<path d="M1400 1560 c-12 -7 -10 -9 8 -7 12 0 22 5 22 9 0 11 -12 10 -30 -2z"/>
<path d="M306 1511 c-15 -28 -24 -51 -22 -51 9 0 59 91 53 96 -3 3 -17 -17
-31 -45z"/>
<path d="M450 1538 c-27 -29 -25 -64 5 -94 l26 -26 32 21 c28 18 32 25 30 63
-1 22 -8 45 -15 49 -23 15 -57 9 -78 -13z m48 -5 c-37 -6 -47 -48 -17 -74 12
-10 18 -19 14 -19 -17 0 -45 34 -45 55 0 29 19 45 50 44 l25 -2 -27 -4z"/>
<path d="M1071 1548 c-1 -19 -31 -26 -31 -8 0 6 -4 10 -10 10 -5 0 -7 -7 -3
-15 6 -17 -17 -17 -29 0 -4 6 -8 2 -8 -9 0 -16 5 -17 38 -11 43 8 56 18 49 37
-4 9 -6 7 -6 -4z"/>
<path d="M1350 1550 c0 -5 4 -10 9 -10 6 0 13 5 16 10 3 6 -1 10 -9 10 -9 0
-16 -4 -16 -10z"/>
<path d="M3275 1527 c-42 -42 -43 -51 -9 -82 25 -23 28 -24 56 -9 38 20 50 52
30 81 -17 28 -30 29 -39 6 -9 -24 -43 -60 -43 -46 0 6 12 26 26 43 37 44 22
50 -21 7z m65 -36 c0 -5 -7 -11 -14 -14 -10 -4 -13 -1 -9 9 6 15 23 19 23 5z"/>
<path d="M799 1535 c-80 -16 -89 -22 -88 -47 1 -22 1 -22 9 2 4 14 9 18 9 10
1 -12 3 -12 10 -2 8 13 68 31 104 32 10 0 15 -4 12 -10 -3 -5 -2 -10 3 -10 5
0 12 8 14 18 6 22 2 22 -73 7z"/>
<path d="M1295 1540 c3 -5 8 -10 11 -10 2 0 4 5 4 10 0 6 -5 10 -11 10 -5 0
-7 -4 -4 -10z"/>
<path d="M2123 1530 c-23 -10 -44 -16 -46 -13 -8 7 -87 -19 -87 -29 0 -5 5 -6
11 -3 5 4 23 2 38 -5 22 -9 39 -9 72 0 40 11 44 10 61 -12 21 -27 22 -18 5 39
l-12 42 -42 -19z m27 -19 c0 -9 -24 -21 -41 -21 -16 0 -10 18 9 23 28 8 32 7
32 -2z m-60 -22 c0 -12 -31 -11 -50 2 -13 9 -12 10 2 5 10 -3 20 -1 23 5 7 11
25 3 25 -12z"/>
<path d="M960 1528 c0 -9 -6 -19 -12 -21 -7 -3 -3 -6 10 -6 24 -1 27 6 12 29
-8 13 -10 13 -10 -2z"/>
<path d="M2306 1525 c4 -8 8 -15 10 -15 2 0 4 7 4 15 0 8 -4 15 -10 15 -5 0
-7 -7 -4 -15z"/>
<path d="M890 1510 c0 -22 1 -23 24 -14 13 5 13 8 1 20 -19 19 -25 18 -25 -6z"/>
<path d="M1480 1515 c0 -8 -11 -97 -24 -197 -40 -299 -39 -288 -22 -288 9 0
100 -11 203 -25 103 -14 193 -23 200 -21 7 3 13 0 13 -6 0 -6 3 -9 6 -5 4 3 3
14 0 24 -6 14 -9 15 -16 4 -7 -12 -11 -11 -26 4 -17 17 -17 17 4 11 17 -6 21
-4 16 8 -4 10 -19 16 -38 17 -53 1 -90 10 -107 25 -19 17 -69 19 -69 2 0 -7
-5 -5 -11 5 -5 9 -17 17 -26 17 -13 0 -14 -3 -5 -12 7 -7 12 -17 12 -22 0 -6
-5 -4 -10 4 -6 10 -10 11 -10 3 0 -7 -8 -13 -17 -13 -15 0 -16 2 -3 10 13 9
13 10 0 10 -13 0 -13 1 0 10 13 8 13 10 -2 10 -9 0 -19 -6 -21 -12 -3 -8 -6
-6 -6 5 -1 21 -41 24 -41 2 0 -21 -13 -19 -27 4 -10 16 -8 52 7 178 29 228 18
207 103 200 l72 -6 -60 13 c-37 8 -49 14 -32 15 15 0 27 6 27 12 0 5 -5 7 -11
3 -6 -3 -14 -2 -18 3 -3 6 -18 13 -33 17 -21 5 -28 3 -28 -9z m33 -445 c3 -11
1 -18 -4 -14 -5 3 -9 12 -9 20 0 20 7 17 13 -6z m138 -9 c7 11 9 10 9 -4 0
-20 -22 -19 -26 1 -2 9 -1 9 3 1 4 -8 8 -7 14 2z m47 -24 c16 6 16 6 0 -10
-22 -23 -24 -22 -25 16 0 18 1 23 4 10 3 -16 9 -20 21 -16z m-85 1 c-5 -10
-109 -9 -143 1 -15 5 11 7 61 7 48 -1 85 -4 82 -8z m47 -17 c0 -5 -9 -7 -20
-4 -11 3 -20 7 -20 9 0 2 9 4 20 4 11 0 20 -4 20 -9z m120 -11 c0 -5 -5 -10
-11 -10 -5 0 -7 5 -4 10 3 6 8 10 11 10 2 0 4 -4 4 -10z"/>
<path d="M1095 1510 c-3 -5 -1 -10 4 -10 6 0 11 5 11 10 0 6 -2 10 -4 10 -3 0
-8 -4 -11 -10z"/>
<path d="M1207 1500 c3 -11 9 -20 13 -20 5 0 6 9 3 20 -3 11 -9 20 -13 20 -5
0 -6 -9 -3 -20z"/>
<path d="M781 1498 c-1 -9 -7 -19 -13 -22 -7 -3 7 -2 32 1 25 3 54 10 65 14
l20 9 -20 -2 c-11 -2 -26 1 -34 6 -10 6 -12 5 -7 -2 5 -8 0 -12 -13 -12 -10 0
-22 6 -24 13 -4 7 -6 6 -6 -5z"/>
<path d="M1180 1501 c0 -5 5 -13 10 -16 6 -3 10 -2 10 4 0 5 -4 13 -10 16 -5
3 -10 2 -10 -4z"/>
<path d="M1582 1499 c3 -8 16 -14 31 -13 15 1 27 -2 27 -6 0 -4 11 -7 25 -6
38 2 30 13 -14 20 -22 3 -47 9 -56 13 -13 4 -16 2 -13 -8z"/>
<path d="M3471 1497 c-8 -11 -7 -18 7 -31 16 -14 19 -14 19 -1 0 8 -4 15 -8
15 -5 0 -6 7 -3 15 8 19 0 19 -15 2z"/>
<path d="M0 1420 c0 -75 11 -88 43 -52 32 35 17 100 -25 115 -16 6 -18 -1 -18
-63z"/>
<path d="M615 1480 c3 -5 8 -10 11 -10 2 0 4 5 4 10 0 6 -5 10 -11 10 -5 0 -7
-4 -4 -10z"/>
<path d="M671 1474 c0 -11 3 -14 6 -6 3 7 2 16 -1 19 -3 4 -6 -2 -5 -13z"/>
<path d="M691 1474 c-1 -27 -28 -39 -34 -16 -4 16 -5 15 -6 0 0 -10 -8 -18
-18 -18 -9 0 -14 -2 -11 -5 9 -9 108 6 108 16 0 5 -6 6 -14 3 -9 -4 -16 3 -19
18 -4 21 -4 22 -6 2z"/>
<path d="M1703 1476 c1 -6 -14 -13 -33 -15 -30 -3 -25 -6 35 -17 39 -7 87 -13
107 -13 47 -1 53 -12 23 -41 -14 -13 -25 -28 -25 -34 0 -5 15 6 34 25 46 46
56 53 96 65 34 10 32 11 -40 19 -103 12 -120 12 -120 3 0 -4 9 -8 21 -8 11 0
17 -4 14 -10 -3 -5 -17 -10 -30 -10 -16 0 -22 5 -20 18 1 9 0 11 -2 5 -5 -15
-39 -17 -48 -3 -3 6 3 10 14 10 30 0 26 15 -4 16 -13 1 -23 -3 -22 -10z"/>
<path d="M2651 1483 c-1 -6 -4 -20 -7 -30 -5 -17 -5 -17 6 0 6 10 9 23 6 30
-3 9 -5 9 -5 0z"/>
<path d="M330 1470 c0 -5 5 -10 11 -10 5 0 7 5 4 10 -3 6 -8 10 -11 10 -2 0
-4 -4 -4 -10z"/>
<path d="M741 1464 c0 -11 3 -14 6 -6 3 7 2 16 -1 19 -3 4 -6 -2 -5 -13z"/>
<path d="M1420 1469 c0 -16 -24 -36 -38 -31 -7 2 -24 -8 -37 -22 -22 -23 -45
-20 -30 4 3 6 2 10 -4 10 -5 0 -16 3 -25 6 -10 4 -16 1 -16 -9 0 -10 -8 -13
-25 -9 -18 3 -25 0 -25 -12 0 -9 5 -16 10 -16 6 0 5 -6 -2 -14 -7 -8 -15 -10
-16 -5 -2 5 -8 7 -13 3 -5 -3 -9 0 -9 5 0 6 5 11 11 11 6 0 9 6 7 13 -9 24
-33 13 -30 -14 3 -26 -23 -48 -37 -33 -3 4 0 9 6 11 17 6 -9 32 -34 35 -35 3
-63 -2 -63 -12 0 -5 17 -7 38 -5 20 2 31 1 24 -2 -6 -2 -10 -9 -6 -14 3 -5 1
-9 -5 -9 -5 0 -11 5 -13 11 -6 17 -38 -2 -44 -27 -3 -13 -13 -24 -22 -24 -8 0
-13 -3 -9 -6 6 -7 85 9 290 58 117 28 127 32 127 53 0 13 3 30 6 39 3 9 1 16
-5 16 -6 0 -11 -5 -11 -11z"/>
<path d="M3187 1462 c1 -8 3 -16 3 -18 0 -3 5 -2 10 1 6 3 10 11 10 16 0 6 -4
8 -9 5 -5 -4 -11 -3 -14 1 -2 5 -2 2 0 -5z"/>
<path d="M3348 1437 c-21 -22 -36 -42 -35 -44 6 -6 57 38 68 59 17 33 6 28
-33 -15z"/>
<path d="M380 1460 c0 -5 5 -10 11 -10 5 0 7 5 4 10 -3 6 -8 10 -11 10 -2 0
-4 -4 -4 -10z"/>
<path d="M1232 1450 c0 -14 2 -19 5 -12 2 6 2 18 0 25 -3 6 -5 1 -5 -13z"/>
<path d="M2325 1460 c3 -5 8 -10 11 -10 2 0 4 5 4 10 0 6 -5 10 -11 10 -5 0
-7 -4 -4 -10z"/>
<path d="M1518 1453 c7 -3 16 -2 19 1 4 3 -2 6 -13 5 -11 0 -14 -3 -6 -6z"/>
<path d="M2370 1453 c0 -4 5 -15 10 -23 8 -13 10 -13 10 2 0 9 -4 20 -10 23
-5 3 -10 3 -10 -2z"/>
<path d="M325 1440 c3 -5 8 -10 11 -10 2 0 4 5 4 10 0 6 -5 10 -11 10 -5 0 -7
-4 -4 -10z"/>
<path d="M1205 1440 c-3 -5 -1 -10 4 -10 6 0 11 5 11 10 0 6 -2 10 -4 10 -3 0
-8 -4 -11 -10z"/>
<path d="M1568 1443 c6 -2 18 -2 25 0 6 3 1 5 -13 5 -14 0 -19 -2 -12 -5z"/>
<path d="M2890 1440 c0 -5 5 -10 11 -10 5 0 7 5 4 10 -3 6 -8 10 -11 10 -2 0
-4 -4 -4 -10z"/>
<path d="M375 1430 c3 -5 8 -10 11 -10 2 0 4 5 4 10 0 6 -5 10 -11 10 -5 0 -7
-4 -4 -10z"/>
<path d="M542 1431 c-10 -6 -10 -10 3 -21 13 -11 15 -9 15 9 0 24 0 24 -18 12z"/>
<path d="M1648 1433 c7 -3 16 -2 19 1 4 3 -2 6 -13 5 -11 0 -14 -3 -6 -6z"/>
<path d="M2080 1418 c19 -13 44 -40 55 -61 11 -20 23 -37 28 -37 4 0 0 14 -9
31 l-16 32 36 -6 c29 -5 36 -3 36 11 0 24 -12 39 -30 39 -8 0 -42 3 -75 7
l-60 8 35 -24z"/>
<path d="M2635 1419 c-4 -6 -5 -12 -2 -15 2 -3 7 2 10 11 7 17 1 20 -8 4z"/>
<path d="M2670 1420 c0 -5 5 -10 11 -10 5 0 7 5 4 10 -3 6 -8 10 -11 10 -2 0
-4 -4 -4 -10z"/>
<path d="M2932 1378 c-7 -28 -11 -53 -8 -55 2 -2 9 19 16 47 7 28 10 53 8 55
-3 3 -10 -18 -16 -47z"/>
<path d="M3230 1420 c-9 -6 -10 -10 -3 -10 6 0 15 5 18 10 8 12 4 12 -15 0z"/>
<path d="M639 1405 c-7 -27 23 -215 40 -240 l13 -20 -7 20 c-9 25 -33 167 -37
220 -2 27 -5 33 -9 20z"/>
<path d="M1778 1413 c6 -2 18 -2 25 0 6 3 1 5 -13 5 -14 0 -19 -2 -12 -5z"/>
<path d="M1915 1403 c-32 -18 -64 -52 -65 -70 0 -6 -10 -24 -23 -40 -42 -52
-50 -78 -44 -140 4 -38 12 -62 23 -70 11 -8 20 -9 24 -3 3 5 11 -4 17 -20 7
-19 8 -30 2 -30 -6 0 -7 -4 -4 -10 3 -5 11 -10 17 -10 10 0 5 49 -9 88 -4 10
-2 13 3 9 4 -4 14 9 20 30 10 31 12 34 13 13 1 -14 10 -36 21 -50 l20 -25 -15
37 c-8 21 -15 47 -15 58 0 11 -7 20 -15 20 -8 0 -15 5 -15 10 0 6 5 10 10 10
6 0 10 8 10 18 0 14 2 14 9 3 7 -11 9 -8 10 10 1 92 11 144 28 157 17 13 64
12 108 -3 14 -4 12 -2 -5 9 -32 20 -87 19 -125 -1z m-35 -131 c0 -15 -2 -15
-10 -2 -13 20 -13 33 0 25 6 -3 10 -14 10 -23z m-40 -39 c0 -10 -5 -25 -10
-33 -8 -11 -10 -7 -8 18 2 33 18 46 18 15z"/>
<path d="M468 1373 c-32 -21 -58 -40 -58 -43 0 -3 31 -54 69 -112 72 -111 147
-232 169 -273 13 -24 14 -24 38 -8 18 12 24 22 20 37 -3 12 -6 24 -6 29 0 4
-7 7 -16 7 -8 0 -12 -4 -9 -10 3 -5 -3 -10 -14 -10 -14 0 -30 15 -47 43 -15
23 -58 90 -96 148 -63 99 -77 139 -46 139 5 0 6 4 3 10 -7 12 19 53 28 44 8
-8 37 14 37 27 0 15 -13 10 -72 -28z"/>
<path d="M1535 1400 c-3 -5 -1 -10 4 -10 6 0 11 5 11 10 0 6 -2 10 -4 10 -3 0
-8 -4 -11 -10z"/>
<path d="M2717 1392 c-23 -25 -21 -68 3 -92 39 -39 100 -12 100 44 0 58 -66
89 -103 48z m73 -12 c23 -23 24 -33 10 -61 -13 -23 -53 -25 -74 -3 -18 17 -21
44 -6 44 6 0 10 -4 10 -8 0 -5 10 -14 23 -21 l22 -11 -24 6 c-16 4 -21 3 -17
-5 13 -21 53 -13 58 12 6 29 -2 54 -11 39 -4 -7 -11 -4 -19 8 -16 26 2 26 28
0z"/>
<path d="M1641 1384 c0 -11 3 -14 6 -6 3 7 2 16 -1 19 -3 4 -6 -2 -5 -13z"/>
<path d="M3266 1383 c-6 -14 -5 -15 5 -6 7 7 10 15 7 18 -3 3 -9 -2 -12 -12z"/>
<path d="M108 1378 c-16 -5 -28 -14 -28 -19 0 -5 -3 -8 -7 -7 -5 2 -19 -5 -33
-15 -23 -16 -23 -17 -4 -17 12 0 33 11 48 25 15 14 33 25 41 25 8 0 17 5 20
10 7 12 -1 12 -37 -2z"/>
<path d="M517 1363 c-24 -17 -33 -29 -26 -34 8 -4 5 -10 -7 -17 -10 -6 -17
-13 -14 -15 3 -3 28 11 55 30 34 24 42 33 25 29 -24 -7 -24 -6 -6 8 34 28 11
26 -27 -1z m8 -23 c-3 -5 -11 -10 -16 -10 -6 0 -7 5 -4 10 3 6 11 10 16 10 6
0 7 -4 4 -10z"/>
<path d="M1030 1369 c0 -5 5 -7 10 -4 6 3 10 8 10 11 0 2 -4 4 -10 4 -5 0 -10
-5 -10 -11z"/>
<path d="M2077 1337 c5 -39 3 -45 -16 -50 -17 -4 -21 -13 -21 -46 0 -40 -1
-41 -27 -36 -27 6 -27 6 -9 -9 11 -9 23 -16 27 -16 15 0 4 -40 -11 -40 -12 -1
-11 -3 4 -15 25 -19 10 -38 -25 -31 -17 3 -29 1 -33 -7 -3 -9 -5 -9 -5 1 -2
20 -21 14 -21 -7 0 -11 12 -29 27 -41 26 -20 28 -20 40 -4 8 11 13 13 13 5 0
-23 -21 -51 -38 -52 -15 0 -15 -1 1 -8 10 -4 17 -11 15 -16 -2 -6 11 -11 27
-13 l30 -2 -27 15 c-16 9 -28 18 -28 21 0 11 84 -4 88 -16 3 -7 0 -10 -7 -6
-6 4 -11 2 -11 -3 0 -14 47 -14 55 -1 3 6 -1 7 -9 4 -9 -3 -16 -1 -16 5 0 6
12 11 26 11 17 0 23 -4 18 -12 -5 -8 -2 -9 10 -5 10 4 25 7 34 7 30 1 -9 17
-53 23 -52 6 -68 13 -82 36 -10 16 -9 18 7 14 26 -7 44 13 59 67 9 33 9 53 2
73 -6 16 -11 53 -11 82 0 36 -7 65 -19 86 l-19 31 5 -45z m4 -122 c5 4 9 1 9
-4 0 -6 -4 -11 -9 -11 -5 0 -12 -10 -14 -22 -2 -13 -4 -3 -4 22 -1 25 1 37 4
27 2 -9 9 -15 14 -12z m-11 -85 c0 -5 -5 -10 -11 -10 -5 0 -7 5 -4 10 3 6 8
10 11 10 2 0 4 -4 4 -10z"/>
<path d="M190 1355 c-10 -12 -10 -15 4 -15 9 0 16 7 16 15 0 8 -2 15 -4 15 -2
0 -9 -7 -16 -15z"/>
<path d="M1350 1354 c-25 -8 -52 -17 -60 -20 -8 -4 -31 -8 -50 -10 -42 -4 -90
-23 -90 -35 0 -12 7 -11 33 3 26 14 76 18 83 6 3 -4 -7 -8 -23 -8 -15 0 -35
-5 -43 -10 -21 -14 -7 -12 89 9 l83 19 -5 -21 c-3 -12 -11 -42 -17 -67 -12
-48 -7 -114 14 -175 l13 -38 11 79 c7 44 17 122 23 174 6 52 13 98 16 103 6
11 -26 7 -77 -9z m-35 -43 c-3 -6 -14 -11 -23 -11 -15 1 -15 2 2 15 21 16 32
13 21 -4z m88 -6 c-3 -9 -8 -14 -10 -11 -3 3 -2 9 2 15 9 16 15 13 8 -4z m-6
-47 c-3 -8 -6 -5 -6 6 -1 11 2 17 5 13 3 -3 4 -12 1 -19z m-17 -95 c-11 -17
-11 -17 -6 0 3 10 7 28 7 40 2 22 2 22 6 0 2 -12 -1 -30 -7 -40z m-23 -5 c-3
-7 -5 -2 -5 12 0 14 2 19 5 13 2 -7 2 -19 0 -25z m16 -50 c-8 -46 -13 -48 -13
-5 0 21 4 37 10 37 5 0 7 -14 3 -32z"/>
<path d="M2330 1356 c0 -8 4 -17 9 -20 5 -4 7 3 4 14 -6 23 -13 26 -13 6z"/>
<path d="M3040 1360 c0 -5 5 -10 11 -10 5 0 7 5 4 10 -3 6 -8 10 -11 10 -2 0
-4 -4 -4 -10z"/>
<path d="M939 1329 c-13 -19 -36 -28 -24 -10 3 6 -4 9 -15 8 -11 -1 -21 -4
-21 -7 -1 -3 -3 -16 -5 -30 -1 -14 -6 -37 -9 -51 -7 -26 -5 -27 36 -27 56 -1
58 1 49 42 -7 32 -6 34 21 40 35 7 36 15 5 38 -21 16 -23 15 -37 -3z m28 -15
c-3 -3 -12 -4 -19 -1 -8 3 -5 6 6 6 11 1 17 -2 13 -5z m-67 -44 c0 -5 -5 -10
-11 -10 -5 0 -7 5 -4 10 3 6 8 10 11 10 2 0 4 -4 4 -10z m-3 -26 c-3 -3 -12
-4 -19 -1 -8 3 -5 6 6 6 11 1 17 -2 13 -5z"/>
<path d="M1820 1330 c-6 -11 -8 -20 -6 -20 3 0 10 9 16 20 6 11 8 20 6 20 -3
0 -10 -9 -16 -20z"/>
<path d="M2202 1338 c-17 -17 -15 -25 8 -31 11 -3 20 -1 20 4 0 5 -7 9 -16 9
-14 0 -14 3 -4 15 15 18 9 20 -8 3z"/>
<path d="M2380 1330 c-14 -10 -22 -21 -19 -24 3 -3 16 5 29 19 28 30 24 32
-10 5z"/>
<path d="M3250 1341 c0 -5 -7 -11 -17 -13 -14 -3 -14 -5 -2 -15 12 -10 17 -8
27 7 7 12 8 21 2 25 -6 3 -10 2 -10 -4z"/>
<path d="M3010 1299 c-7 -23 -9 -50 -7 -60 3 -11 2 -17 -3 -14 -11 7 -23 -46
-13 -56 11 -11 107 14 96 25 -4 5 3 5 16 1 16 -5 21 -4 17 4 -4 6 -2 11 3 11
6 0 11 12 11 26 0 14 4 23 10 19 6 -4 6 -15 -1 -32 -12 -32 -10 -34 23 -20
l27 12 -46 48 c-25 27 -43 42 -40 34 3 -9 0 -18 -7 -20 -9 -4 -12 3 -10 23 2
16 -1 32 -6 35 -6 3 -7 -1 -4 -9 8 -20 -5 -20 -33 -1 -21 15 -22 14 -33 -26z
m115 -29 c3 -5 1 -10 -4 -10 -6 0 -11 5 -11 10 0 6 2 10 4 10 3 0 8 -4 11 -10z"/>
<path d="M3315 1330 c-3 -5 -1 -10 4 -10 6 0 11 5 11 10 0 6 -2 10 -4 10 -3 0
-8 -4 -11 -10z"/>
<path d="M556 1314 c-4 -9 -4 -19 -2 -21 8 -8 26 8 26 23 0 19 -16 18 -24 -2z"/>
<path d="M1571 1304 c-26 -33 -27 -58 -1 -84 43 -43 110 -14 110 48 0 59 -72
83 -109 36z m90 -27 c6 -22 3 -33 -12 -48 -22 -22 -37 -23 -61 -5 -20 15 -23
38 -7 67 17 32 70 22 80 -14z"/>
<path d="M1594 1289 c-3 -5 0 -9 6 -9 6 0 9 -4 6 -9 -3 -5 1 -12 10 -15 9 -4
14 -9 10 -13 -3 -3 -15 2 -26 12 -17 16 -20 16 -20 2 0 -9 9 -18 20 -22 21 -7
68 13 54 24 -5 3 -9 13 -9 21 0 16 -42 23 -51 9z"/>
<path d="M1786 1315 c-9 -26 -7 -32 5 -12 6 10 9 21 6 23 -2 3 -7 -2 -11 -11z"/>
<path d="M3266 1303 c-4 -9 1 -24 11 -35 14 -16 19 -17 31 -4 16 16 10 31 -18
46 -14 7 -19 6 -24 -7z m26 -25 c-7 -7 -12 -8 -12 -2 0 14 12 26 19 19 2 -3
-1 -11 -7 -17z"/>
<path d="M2167 1253 c6 -79 11 -89 12 -23 0 30 -3 61 -8 68 -4 7 -6 -13 -4
-45z"/>
<path d="M2645 1300 c-3 -5 -1 -10 4 -10 6 0 11 5 11 10 0 6 -2 10 -4 10 -3 0
-8 -4 -11 -10z"/>
<path d="M1080 1288 c-25 -5 -55 -12 -68 -14 -17 -3 -21 -10 -17 -27 2 -12 22
-101 44 -197 21 -96 42 -189 46 -207 10 -49 36 -49 234 -2 97 23 178 44 181
46 2 2 -2 8 -10 13 -9 6 -10 10 -3 10 6 0 15 -4 18 -10 9 -15 22 -12 22 5 0 8
-4 12 -9 9 -4 -3 -8 0 -8 7 0 7 -3 9 -6 6 -4 -3 -15 -2 -26 4 -12 7 -24 7 -31
1 -7 -5 -29 -12 -49 -16 -26 -5 -38 -12 -39 -24 0 -12 -3 -11 -9 6 -11 25 -37
29 -65 8 -11 -8 -25 -12 -32 -9 -26 10 -63 -7 -64 -30 -1 -17 -2 -18 -6 -4 -5
18 -12 21 -37 11 -9 -3 -13 -10 -10 -15 6 -11 -17 -12 -32 -1 -11 7 -84 310
-84 348 0 18 11 23 81 39 44 9 78 19 76 21 -4 4 -78 -10 -119 -22 -13 -4 -16
-1 -12 10 3 8 9 15 12 14 4 0 12 1 17 2 6 1 15 3 20 5 6 1 18 3 28 3 9 1 17 7
17 12 0 11 2 11 -60 -2z m233 -398 c-3 -11 -7 -20 -9 -20 -2 0 -4 9 -4 20 0
11 4 20 9 20 5 0 7 -9 4 -20z m130 5 c-3 -9 -8 -14 -10 -11 -3 3 -2 9 2 15 9
16 15 13 8 -4z m-227 -30 c-9 -9 -16 -13 -16 -8 0 12 22 34 28 28 2 -2 -3 -11
-12 -20z m124 -5 c-8 -5 -24 -9 -35 -9 l-20 0 20 9 c11 5 27 9 35 9 13 1 13 0
0 -9z m-75 -10 c-3 -5 -12 -10 -18 -10 -7 0 -6 4 3 10 19 12 23 12 15 0z m-50
-20 c-11 -5 -33 -8 -50 -8 l-30 0 30 8 c17 4 39 8 50 8 l20 1 -20 -9z"/>
<path d="M1960 1280 c0 -11 7 -20 16 -20 8 0 12 -4 9 -10 -3 -5 -2 -10 3 -10
8 0 32 42 32 55 0 3 -13 5 -30 5 -23 0 -30 -4 -30 -20z m37 -6 c-3 -3 -12 -4
-19 -1 -8 3 -5 6 6 6 11 1 17 -2 13 -5z"/>
<path d="M2906 1264 c-4 -20 -5 -38 -3 -40 3 -3 8 11 11 32 4 20 5 38 3 40 -3
3 -8 -11 -11 -32z"/>
<path d="M525 1280 c3 -5 8 -10 11 -10 2 0 4 5 4 10 0 6 -5 10 -11 10 -5 0 -7
-4 -4 -10z"/>
<path d="M1338 1283 c7 -3 16 -2 19 1 4 3 -2 6 -13 5 -11 0 -14 -3 -6 -6z"/>
<path d="M2225 1280 c-3 -5 -1 -10 4 -10 6 0 11 5 11 10 0 6 -2 10 -4 10 -3 0
-8 -4 -11 -10z"/>
<path d="M140 1273 c-136 -4 -143 -7 -134 -46 3 -18 11 -35 17 -39 8 -4 5 -9
-6 -14 -14 -5 -17 -20 -17 -89 0 -64 3 -84 15 -88 8 -4 17 -2 20 3 12 20 23 9
29 -27 3 -21 9 -48 12 -60 6 -21 3 -23 -35 -23 -34 0 -41 -3 -41 -20 0 -11 4
-20 10 -20 5 0 7 8 3 18 -6 16 -5 16 14 -1 12 -11 24 -14 27 -9 3 6 0 13 -6
15 -8 3 -6 6 5 6 9 1 17 -5 17 -11 0 -9 4 -8 10 2 9 13 11 13 20 0 11 -18 -22
-34 -57 -27 -12 2 -28 0 -35 -5 -8 -6 49 -7 147 -3 185 8 178 7 187 20 5 6 8
5 8 -4 0 -9 8 -11 23 -8 12 3 56 7 99 8 l76 2 -3 31 c-1 17 0 21 2 9 6 -33 21
-28 16 5 -3 23 -2 24 6 7 8 -17 10 -18 10 -2 2 30 39 21 44 -10 4 -21 4 -19 3
7 0 19 -4 34 -8 33 -5 -2 -26 -3 -48 -3 -39 0 -40 -1 -40 -33 l0 -33 -54 -2
c-45 -1 -54 1 -52 15 3 19 46 28 57 12 5 -9 12 -8 24 4 15 16 14 17 -22 17
-60 0 -81 -9 -76 -31 4 -16 0 -19 -26 -19 -21 0 -31 5 -31 15 0 8 5 15 10 15
6 0 10 -4 10 -10 0 -5 5 -10 10 -10 6 0 10 7 10 16 0 14 -18 15 -145 12 -117
-3 -145 -2 -150 10 -9 23 -5 38 5 22 8 -13 10 -13 10 2 0 9 3 25 6 35 6 16 5
15 -9 -2 -8 -11 -19 -17 -23 -12 -4 4 -2 7 4 7 7 0 12 12 12 26 0 14 -4 23
-10 19 -6 -4 -8 -10 -5 -15 3 -5 1 -11 -5 -15 -15 -10 -12 21 4 34 10 8 16 9
21 1 11 -17 25 -1 25 30 0 28 24 48 35 30 4 -6 1 -10 -6 -10 -8 0 -9 -3 0 -13
6 -8 8 -17 4 -20 -3 -4 0 -8 8 -8 62 -7 79 -6 92 4 18 15 35 63 18 53 -6 -4
-11 0 -11 9 0 9 5 13 10 10 6 -3 10 4 10 17 0 22 1 22 14 -4 8 -15 21 -37 29
-48 12 -18 16 -19 27 -5 7 9 21 13 35 9 23 -6 36 6 40 35 1 9 5 29 10 45 8 30
-12 56 -27 33 -5 -8 -8 -8 -8 -1 0 7 -24 9 -72 6 -40 -2 -92 -4 -115 -3 -33 1
-41 -2 -37 -13 3 -8 1 -23 -5 -33 -8 -15 -10 -13 -8 12 l2 29 -58 -2 c-33 -1
-57 2 -57 8 0 10 21 14 48 11 7 -1 12 9 12 24 0 20 5 25 24 25 15 0 26 -7 29
-20 3 -11 11 -20 17 -20 10 0 10 4 0 15 -21 25 -2 30 19 6 22 -25 41 -21 41 9
0 11 6 17 17 16 22 -4 29 -26 12 -37 -8 -5 -9 -9 -3 -9 17 0 37 27 29 40 -3 5
-2 10 2 10 13 0 34 -40 27 -51 -4 -7 2 -6 16 1 15 8 20 18 17 31 -4 14 0 19
14 19 21 0 26 -26 7 -33 -7 -2 -10 -7 -7 -11 4 -4 13 0 21 8 12 11 18 12 28 3
7 -7 4 4 -6 23 l-20 35 -85 1 c-46 0 -127 -1 -179 -3z m228 -10 c-21 -2 -55
-2 -75 0 -21 2 -4 4 37 4 41 0 58 -2 38 -4z m-141 -10 c-8 -7 -108 -5 -116 3
-2 2 24 4 59 4 35 0 60 -3 57 -7z m127 -19 c9 -24 7 -28 -9 -14 -17 14 -20 30
-6 30 5 0 12 -7 15 -16z m-284 -24 c5 0 11 8 13 18 4 13 5 11 6 -5 1 -19 -4
-23 -28 -23 -32 0 -51 27 -23 32 9 2 18 -2 20 -9 2 -7 7 -13 12 -13z m37 -2
c-3 -7 -5 -2 -5 12 0 14 2 19 5 13 2 -7 2 -19 0 -25z m130 10 c-3 -8 -6 -5 -6
6 -1 11 2 17 5 13 3 -3 4 -12 1 -19z m-120 -95 c-3 -10 -5 -2 -5 17 0 19 2 27
5 18 2 -10 2 -26 0 -35z m223 37 c0 -5 -4 -10 -10 -10 -5 0 -10 5 -10 10 0 6
5 10 10 10 6 0 10 -4 10 -10z m-240 -4 c0 -2 -7 -6 -15 -10 -8 -3 -15 -1 -15
4 0 6 7 10 15 10 8 0 15 -2 15 -4z m170 -35 c0 -5 -10 -11 -22 -14 -22 -6 -22
-6 -4 8 23 17 26 18 26 6z m10 -241 c0 -5 5 -10 11 -10 5 0 7 5 4 10 -3 6 -1
10 4 10 6 0 11 -6 12 -12 0 -10 2 -10 6 0 7 17 23 15 23 -3 0 -8 -8 -15 -17
-15 -10 -1 -35 -3 -57 -6 -27 -4 -41 -2 -47 8 -5 7 -9 8 -9 2 0 -14 -87 -17
-95 -3 -11 16 5 25 16 9 8 -13 10 -13 19 0 9 13 10 13 10 0 0 -10 3 -11 8 -4
4 6 22 10 40 9 17 -1 32 2 32 7 0 4 9 8 20 8 11 0 20 -4 20 -10z"/>
<path d="M250 870 c0 -5 5 -10 10 -10 6 0 10 5 10 10 0 6 -4 10 -10 10 -5 0
-10 -4 -10 -10z"/>
<path d="M506 1267 c3 -10 9 -15 12 -12 3 3 0 11 -7 18 -10 9 -11 8 -5 -6z"/>
<path d="M1298 1273 c7 -3 16 -2 19 1 4 3 -2 6 -13 5 -11 0 -14 -3 -6 -6z"/>
<path d="M560 1258 c0 -12 -5 -16 -17 -11 -14 5 -15 3 -6 -7 16 -17 45 0 33
20 -8 13 -10 12 -10 -2z"/>
<path d="M1258 1263 c7 -3 16 -2 19 1 4 3 -2 6 -13 5 -11 0 -14 -3 -6 -6z"/>
<path d="M2566 1255 c-3 -8 -1 -15 3 -15 5 0 11 7 15 15 3 8 1 15 -3 15 -5 0
-11 -7 -15 -15z"/>
<path d="M1180 1250 c-20 -6 -21 -8 -5 -8 11 0 31 4 45 8 20 6 21 8 5 8 -11 0
-31 -4 -45 -8z"/>
<path d="M3314 1249 c-8 -14 31 -53 45 -45 13 9 15 36 2 36 -5 0 -11 -6 -14
-12 -2 -7 -8 -10 -12 -6 -4 4 -2 14 5 23 10 12 10 15 -3 15 -9 0 -19 -5 -23
-11z"/>
<path d="M1764 1180 c3 -72 20 -130 38 -130 5 0 1 11 -8 25 -9 14 -20 60 -25
103 l-8 77 3 -75z"/>
<path d="M1128 1233 c7 -3 16 -2 19 1 4 3 -2 6 -13 5 -11 0 -14 -3 -6 -6z"/>
<path d="M131 1214 c0 -11 3 -14 6 -6 3 7 2 16 -1 19 -3 4 -6 -2 -5 -13z"/>
<path d="M1055 1220 c-25 -11 1 -11 35 0 20 6 21 8 5 8 -11 0 -29 -3 -40 -8z"/>
<path d="M2638 1213 c7 -3 16 -2 19 1 4 3 -2 6 -13 5 -11 0 -14 -3 -6 -6z"/>
<path d="M3459 1188 c-19 -27 -20 -30 -4 -18 17 14 18 13 13 -2 -12 -31 6 -28
19 3 25 59 8 68 -28 17z"/>
<path d="M2700 1201 c44 -14 110 -51 110 -62 0 -8 -5 -7 -15 1 -8 7 -15 9 -15
4 0 -5 13 -18 27 -28 26 -19 26 -19 19 -1 -7 18 -6 18 14 0 11 -10 20 -13 20
-7 0 24 -131 103 -167 101 -12 0 -10 -3 7 -8z"/>
<path d="M1110 1180 c-12 -7 -10 -9 7 -7 12 0 19 5 17 9 -6 10 -6 10 -24 -2z"/>
<path d="M2835 1180 c3 -5 8 -10 11 -10 2 0 4 5 4 10 0 6 -5 10 -11 10 -5 0
-7 -4 -4 -10z"/>
<path d="M828 1173 c7 -3 16 -2 19 1 4 3 -2 6 -13 5 -11 0 -14 -3 -6 -6z"/>
<path d="M2403 1153 c-7 -15 -13 -36 -14 -47 0 -21 0 -21 -10 -1 -8 17 -9 16
-6 -7 5 -31 -7 -38 -17 -12 -4 9 -9 14 -13 11 -3 -4 3 -19 13 -34 10 -15 17
-31 16 -35 -1 -5 7 -8 17 -8 16 0 22 13 35 71 15 65 15 89 -2 89 -4 0 -13 -12
-19 -27z"/>
<path d="M2876 1149 c-8 -42 0 -50 9 -9 4 17 5 34 2 36 -2 3 -7 -10 -11 -27z"/>
<path d="M953 1163 c-10 -3 -9 -9 3 -20 14 -15 14 -17 -8 -29 -17 -9 -26 -10
-37 -1 -12 10 -14 9 -8 -5 3 -9 3 -19 -1 -21 -4 -2 0 -2 8 0 8 3 27 7 43 10
16 3 27 12 26 22 -1 28 -13 48 -26 44z"/>
<path d="M1978 1163 c7 -3 16 -2 19 1 4 3 -2 6 -13 5 -11 0 -14 -3 -6 -6z"/>
<path d="M1658 1153 c6 -2 18 -2 25 0 6 3 1 5 -13 5 -14 0 -19 -2 -12 -5z"/>
<path d="M1920 1146 c0 -16 18 -31 27 -22 3 3 -2 12 -11 21 -14 14 -16 14 -16
1z"/>
<path d="M2161 1144 c0 -11 3 -14 6 -6 3 7 2 16 -1 19 -3 4 -6 -2 -5 -13z"/>
<path d="M710 1140 c0 -5 5 -10 10 -10 6 0 10 5 10 10 0 6 -4 10 -10 10 -5 0
-10 -4 -10 -10z"/>
<path d="M870 1129 c-19 -11 -26 -17 -15 -13 11 3 28 9 38 11 9 3 17 9 17 14
0 11 1 12 -40 -12z"/>
<path d="M2351 1134 c0 -11 3 -14 6 -6 3 7 2 16 -1 19 -3 4 -6 -2 -5 -13z"/>
<path d="M3077 1125 c-59 -12 -111 -26 -115 -30 -4 -4 7 -5 23 -2 29 6 29 6 5
-5 -14 -7 -26 -13 -28 -14 -1 0 2 -12 7 -25 5 -13 10 -18 10 -11 1 7 8 20 16
28 13 14 15 14 15 0 0 -8 5 -18 11 -21 6 -4 9 2 7 17 -4 31 15 36 24 6 7 -20
7 -20 4 5 -2 15 0 27 3 28 3 0 16 2 29 5 17 3 22 -1 22 -16 0 -11 4 -20 9 -20
5 0 7 8 4 19 -6 22 5 30 41 33 14 1 26 8 26 15 0 7 -1 12 -2 12 -2 -1 -52 -12
-111 -24z"/>
<path d="M3250 1140 c0 -18 13 -40 20 -35 4 3 14 -8 22 -24 10 -21 18 -27 27
-22 10 7 3 19 -28 49 -22 22 -41 36 -41 32z"/>
<path d="M1160 1120 c-43 -43 -14 -110 48 -110 56 0 81 66 42 108 -26 27 -64
28 -90 2z m78 -12 c18 -18 14 -53 -8 -73 -17 -15 -24 -16 -45 -7 -45 21 -29
92 20 92 12 0 26 -5 33 -12z"/>
<path d="M1188 1103 c-22 -5 -22 -10 -4 -29 13 -12 17 -12 30 2 15 14 16 13
16 -7 0 -12 3 -20 6 -16 4 3 4 18 0 32 -6 25 -13 27 -48 18z"/>
<path d="M1170 1064 c0 -17 22 -33 36 -27 8 3 14 10 14 15 0 6 -6 8 -14 5 -7
-3 -19 0 -25 6 -6 6 -11 7 -11 1z"/>
<path d="M1510 1130 c8 -5 20 -10 25 -10 6 0 3 5 -5 10 -8 5 -19 10 -25 10 -5
0 -3 -5 5 -10z"/>
<path d="M3382 1107 c-18 -18 -32 -41 -32 -50 0 -23 39 -22 47 0 4 9 18 27 32
40 22 19 24 24 11 33 -21 14 -23 13 -58 -23z"/>
<path d="M1558 1123 c7 -3 16 -2 19 1 4 3 -2 6 -13 5 -11 0 -14 -3 -6 -6z"/>
<path d="M1600 1119 c0 -5 9 -9 20 -9 11 0 20 2 20 4 0 2 -9 6 -20 9 -11 3
-20 1 -20 -4z"/>
<path d="M3140 1098 c0 -9 5 -20 10 -23 13 -8 13 5 0 25 -8 13 -10 13 -10 -2z"/>
<path d="M836 1087 c3 -10 9 -15 12 -12 3 3 0 11 -7 18 -10 9 -11 8 -5 -6z"/>
<path d="M3186 1073 c2 -16 12 -68 23 -118 11 -49 20 -104 21 -121 0 -29 -4
-33 -45 -43 -37 -9 -45 -15 -44 -34 0 -21 1 -21 9 -2 8 20 9 19 9 -1 1 -28
-13 -39 -71 -53 -59 -14 -57 -14 -54 6 3 20 57 38 67 22 3 -6 8 -2 11 9 5 18
3 19 -41 8 -39 -11 -46 -16 -49 -40 -3 -25 -7 -28 -32 -24 -16 2 -27 1 -24 -3
2 -4 -20 -13 -49 -20 -28 -7 -47 -14 -41 -16 17 -6 270 63 286 77 8 8 13 25
11 39 -4 25 -3 24 11 -4 l15 -30 -6 29 c-4 20 -3 27 6 22 6 -4 11 -2 11 5 0
21 12 2 21 -33 l8 -33 -2 40 c-1 27 2 39 11 38 6 -2 12 2 12 7 0 6 -4 10 -9
10 -5 0 -9 15 -9 33 -1 36 -26 159 -41 200 -6 15 -8 34 -5 42 4 8 2 15 -4 15
-5 0 -8 -12 -6 -27z"/>
<path d="M790 1085 c0 -5 5 -17 10 -25 5 -8 10 -10 10 -5 0 6 -5 17 -10 25 -5
8 -10 11 -10 5z"/>
<path d="M2245 1080 c-3 -5 -1 -10 4 -10 6 0 11 5 11 10 0 6 -2 10 -4 10 -3 0
-8 -4 -11 -10z"/>
<path d="M3081 1074 c0 -11 3 -14 6 -6 3 7 2 16 -1 19 -3 4 -6 -2 -5 -13z"/>
<path d="M770 1075 c0 -5 5 -17 10 -25 5 -8 10 -10 10 -5 0 6 -5 17 -10 25 -5
8 -10 11 -10 5z"/>
<path d="M1728 1073 c7 -3 16 -2 19 1 4 3 -2 6 -13 5 -11 0 -14 -3 -6 -6z"/>
<path d="M815 1040 c-33 -15 -55 -29 -49 -29 6 -1 14 -18 17 -38 6 -44 25 -98
32 -91 3 3 -2 22 -10 42 -9 21 -15 52 -13 70 3 27 9 33 46 44 23 8 42 18 42
23 0 11 6 13 -65 -21z"/>
<path d="M2102 1039 c-13 -16 -20 -29 -15 -29 9 1 47 50 41 54 -1 2 -13 -10
-26 -25z"/>
<path d="M2331 1058 c0 -7 4 -22 9 -33 8 -18 9 -17 9 7 1 15 -3 30 -9 33 -5 3
-10 0 -9 -7z"/>
<path d="M991 1024 c0 -11 3 -14 6 -6 3 7 2 16 -1 19 -3 4 -6 -2 -5 -13z"/>
<path d="M2423 983 c-5 -29 -7 -53 -4 -53 13 0 27 55 21 80 -5 21 -8 16 -17
-27z"/>
<path d="M1393 996 c2 -6 9 -11 15 -11 6 0 17 -6 24 -12 14 -15 42 -17 33 -3
-3 6 -1 10 5 10 7 0 14 -9 17 -19 3 -11 13 -21 23 -24 13 -3 16 0 12 15 -4 16
-7 17 -14 6 -7 -9 -8 -7 -5 10 6 24 -3 28 -76 35 -23 2 -36 -1 -34 -7z"/>
<path d="M1890 1000 c0 -5 5 -10 11 -10 5 0 7 5 4 10 -3 6 -8 10 -11 10 -2 0
-4 -4 -4 -10z"/>
<path d="M2970 1005 c-1 -5 -2 -14 -1 -19 1 -5 -5 -4 -13 3 -18 15 -17 15 -36
-58 -10 -36 -9 -46 3 -59 14 -13 17 -12 28 6 10 16 16 18 30 9 10 -6 21 -8 24
-5 12 11 12 77 1 82 -7 3 -7 5 2 5 20 2 14 21 -7 21 -11 0 -22 6 -24 13 -3 6
-6 8 -7 2z m-12 -65 c-7 -11 -17 -20 -22 -20 -5 0 -1 9 9 20 10 11 20 20 22
20 2 0 -2 -9 -9 -20z m42 0 c0 -5 -5 -10 -11 -10 -5 0 -7 5 -4 10 3 6 8 10 11
10 2 0 4 -4 4 -10z"/>
<path d="M1005 975 c17 -99 28 -145 36 -145 10 0 6 23 -23 115 -10 33 -16 47
-13 30z"/>
<path d="M1870 980 c0 -5 10 -10 23 -10 18 0 19 2 7 10 -19 13 -30 13 -30 0z"/>
<path d="M1410 973 c0 -13 29 -38 35 -31 3 3 -4 13 -15 23 -11 10 -20 13 -20
8z"/>
<path d="M1635 948 l-20 -21 20 11 c11 6 27 16 35 22 13 9 13 10 0 9 -8 0 -24
-10 -35 -21z"/>
<path d="M1736 950 c7 -7 19 -7 35 -1 23 9 22 10 -10 10 -24 1 -32 -2 -25 -9z"/>
<path d="M2310 944 c-25 -8 -52 -17 -60 -21 -8 -3 -19 -5 -24 -4 -21 5 -56
-23 -55 -43 1 -16 2 -17 6 -4 5 20 41 34 53 21 4 -4 10 -15 13 -23 2 -8 3 -4
1 10 -3 28 10 36 101 63 28 8 41 15 30 15 -11 0 -40 -6 -65 -14z"/>
<path d="M1260 939 c0 -5 5 -7 10 -4 6 3 10 8 10 11 0 2 -4 4 -10 4 -5 0 -10
-5 -10 -11z"/>
<path d="M1368 933 c7 -3 16 -2 19 1 4 3 -2 6 -13 5 -11 0 -14 -3 -6 -6z"/>
<path d="M1660 930 c-13 -9 -13 -10 0 -9 8 1 26 5 40 9 l25 8 -25 1 c-14 0
-32 -4 -40 -9z"/>
<path d="M2353 932 c-9 -6 -7 -13 9 -26 20 -18 21 -18 16 2 -3 12 -1 23 6 26
6 2 5 5 -4 5 -8 0 -21 -3 -27 -7z"/>
<path d="M175 920 c-3 -5 -1 -10 4 -10 6 0 11 5 11 10 0 6 -2 10 -4 10 -3 0
-8 -4 -11 -10z"/>
<path d="M200 918 c0 -5 11 -8 25 -8 14 0 25 4 25 9 0 5 -11 8 -25 7 -14 0
-25 -4 -25 -8z"/>
<path d="M260 920 c0 -5 5 -10 10 -10 6 0 10 5 10 10 0 6 -4 10 -10 10 -5 0
-10 -4 -10 -10z"/>
<path d="M720 905 c0 -14 4 -25 9 -25 4 0 6 11 3 25 -2 14 -6 25 -8 25 -2 0
-4 -11 -4 -25z"/>
<path d="M1198 923 c7 -3 16 -2 19 1 4 3 -2 6 -13 5 -11 0 -14 -3 -6 -6z"/>
<path d="M1799 903 c-1 -16 -4 -80 -8 -143 l-6 -115 -174 2 c-96 2 -171 0
-167 -4 4 -4 21 -8 39 -9 18 -1 40 -2 50 -3 9 -1 17 -4 17 -9 0 -4 -19 -6 -42
-4 -33 3 -40 1 -32 -8 7 -6 53 -13 110 -16 55 -2 125 -6 157 -8 34 -3 57 0 57
6 0 6 -8 7 -17 4 -16 -5 -16 -5 -2 6 13 11 17 44 23 171 4 86 4 157 1 157 -3
0 -6 -12 -6 -27z m-159 -281 c0 -4 -18 -9 -40 -10 -23 -2 -40 2 -40 8 0 5 18
10 40 10 22 0 40 -4 40 -8z m60 -3 c0 -5 -12 -9 -26 -9 -14 0 -23 4 -20 8 7
11 46 12 46 1z m70 -1 c0 -5 -13 -8 -30 -8 -16 0 -30 4 -30 9 0 4 13 8 30 7
16 -1 30 -4 30 -8z"/>
<path d="M1941 916 c-8 -9 -8 -16 -2 -20 6 -4 15 3 21 14 12 23 -2 27 -19 6z"/>
<path d="M1959 883 c-38 -44 -41 -46 -35 -20 4 19 3 26 -4 22 -5 -3 -10 -14
-11 -23 0 -10 -3 -12 -6 -5 -3 9 -11 6 -26 -8 l-22 -21 99 -94 c55 -52 104
-94 110 -94 6 0 -5 15 -24 32 -91 80 -130 120 -130 132 0 17 35 48 44 39 4 -4
20 8 37 26 33 39 38 53 9 26 -24 -22 -27 -9 -3 17 9 10 14 18 10 18 -3 0 -24
-21 -48 -47z m11 -18 c-7 -9 -15 -13 -19 -10 -3 3 1 10 9 15 21 14 24 12 10
-5z"/>
<path d="M5 910 c3 -5 10 -10 16 -10 5 0 9 5 9 10 0 6 -7 10 -16 10 -8 0 -12
-4 -9 -10z"/>
<path d="M1148 913 c6 -2 18 -2 25 0 6 3 1 5 -13 5 -14 0 -19 -2 -12 -5z"/>
<path d="M2320 905 c0 -8 7 -15 15 -15 8 0 15 -6 15 -12 -1 -17 -30 -56 -30
-40 0 14 -10 15 -30 2 -12 -8 -12 -11 3 -28 9 -10 14 -22 10 -27 -5 -4 0 -5
10 -2 9 4 17 2 17 -2 0 -5 -4 -11 -10 -13 -6 -2 -6 -9 0 -18 13 -22 20 -9 33
64 10 62 10 67 -11 86 -18 17 -22 18 -22 5z"/>
<path d="M602 890 c0 -14 2 -19 5 -12 2 6 2 18 0 25 -3 6 -5 1 -5 -13z"/>
<path d="M1540 900 c0 -6 11 -8 28 -4 39 10 40 14 4 14 -18 0 -32 -5 -32 -10z"/>
<path d="M2470 904 c0 -11 47 -64 57 -64 4 0 -4 12 -18 28 -13 15 -27 31 -31
37 -5 5 -8 5 -8 -1z"/>
<path d="M3300 884 c0 -8 4 -13 9 -10 5 4 11 2 13 -4 1 -5 9 -6 16 -1 9 5 6
11 -13 19 -21 10 -25 9 -25 -4z"/>
<path d="M2206 865 c4 -8 8 -15 10 -15 2 0 4 7 4 15 0 8 -4 15 -10 15 -5 0 -7
-7 -4 -15z"/>
<path d="M2142 850 c0 -14 2 -19 5 -12 2 6 2 18 0 25 -3 6 -5 1 -5 -13z"/>
<path d="M3356 854 c-6 -16 2 -18 22 -5 11 7 11 9 -1 14 -9 3 -18 -1 -21 -9z"/>
<path d="M3401 840 c-10 -31 -10 -31 -41 -15 -16 8 -30 12 -30 7 0 -5 15 -16
34 -24 l34 -17 11 32 11 32 -5 -32 c-4 -27 0 -36 21 -49 13 -9 27 -14 30 -11
3 3 -4 8 -15 12 -13 4 -18 12 -14 21 4 11 8 12 13 5 4 -7 11 -2 18 14 11 23 9
26 -15 36 -14 5 -29 12 -33 14 -5 3 -13 -9 -19 -25z m29 -37 c-11 -17 -11 -17
-6 0 3 10 6 24 7 30 0 9 2 9 5 0 3 -7 0 -20 -6 -30z m27 15 c-3 -8 -6 -5 -6 6
-1 11 2 17 5 13 3 -3 4 -12 1 -19z"/>
<path d="M588 853 c6 -2 18 -2 25 0 6 3 1 5 -13 5 -14 0 -19 -2 -12 -5z"/>
<path d="M1593 825 c0 -22 2 -30 4 -17 2 12 2 30 0 40 -3 9 -5 -1 -4 -23z"/>
<path d="M1540 828 c-8 -21 -9 -22 -10 -3 l-1 20 -9 -20 c-13 -30 -12 -31 14
-31 19 0 25 6 28 28 5 34 -9 37 -22 6z"/>
<path d="M2540 831 c0 -5 7 -12 16 -15 14 -5 15 -4 4 9 -14 17 -20 19 -20 6z"/>
<path d="M3480 816 c-15 -39 -12 -46 6 -13 9 16 13 31 10 34 -3 3 -10 -6 -16
-21z"/>
<path d="M2702 823 c-26 -5 -20 -23 9 -23 10 0 19 7 19 15 0 8 -1 14 -2 14 -2
-1 -13 -4 -26 -6z"/>
<path d="M705 810 c-11 -5 -84 -9 -161 -9 l-141 -1 5 -25 c2 -14 8 -25 12 -25
5 0 6 10 3 23 -4 19 -3 20 7 5 14 -22 42 -24 34 -3 -5 11 1 15 25 15 25 0 31
-4 31 -21 0 -12 4 -17 11 -14 6 4 8 13 5 21 -3 8 1 14 8 14 8 0 17 -11 20 -25
5 -18 13 -25 31 -25 13 0 26 4 29 9 3 4 -5 6 -18 4 -16 -3 -25 1 -30 13 -8 22
2 33 14 14 7 -10 10 -11 10 -2 0 6 9 12 20 12 14 0 20 -7 21 -22 1 -19 2 -19
6 -5 3 11 11 16 19 13 8 -3 15 0 15 7 1 7 5 -1 9 -18 l8 -30 1 33 c1 29 4 32
31 32 25 0 30 -4 30 -25 0 -14 4 -25 9 -25 4 0 6 11 3 25 -2 15 0 25 7 25 6 0
11 -11 11 -25 0 -14 5 -25 11 -25 7 0 9 10 5 25 -5 18 -2 25 8 25 8 0 16 -12
19 -27 l4 -28 2 28 c1 28 25 38 34 15 3 -7 6 -4 6 7 1 18 -6 20 -77 22 -42 0
-86 -3 -97 -7z"/>
<path d="M1037 814 c-11 -11 -8 -44 3 -44 15 0 24 30 13 41 -5 5 -12 6 -16 3z"/>
<path d="M1472 809 c2 -6 8 -10 13 -10 5 0 11 4 13 10 2 6 -4 11 -13 11 -9 0
-15 -5 -13 -11z"/>
<path d="M2112 785 c0 -22 8 -71 19 -110 19 -72 17 -45 -6 80 -10 56 -13 62
-13 30z"/>
<path d="M2599 797 c18 -18 176 -16 193 2 11 12 9 13 -12 7 -51 -15 -117 -18
-154 -7 -31 8 -37 8 -27 -2z"/>
<path d="M285 790 c-55 -3 -93 -8 -85 -9 8 -2 22 -3 31 -2 11 1 18 -8 22 -26
3 -15 4 -29 4 -30 -1 -1 -25 -3 -52 -5 -49 -3 -50 -2 -50 25 1 15 -3 27 -7 27
-4 0 -8 -6 -8 -14 0 -8 -7 -16 -14 -19 -10 -4 -13 -1 -10 7 3 7 -2 18 -10 25
-13 11 -15 9 -11 -18 4 -33 -3 -38 -24 -18 -9 7 -11 7 -8 1 4 -7 0 -14 -7 -17
-11 -4 -16 3 -18 26 -2 23 -9 33 -23 35 -19 3 -19 2 -3 -11 22 -17 24 -47 3
-47 -12 0 -15 -14 -15 -65 l0 -64 36 -7 c25 -5 32 -9 22 -15 -7 -5 -8 -9 -3
-9 6 0 3 -5 -5 -10 -8 -5 -10 -10 -5 -10 6 0 16 4 24 9 24 15 39 -9 27 -41 -6
-15 -14 -28 -18 -28 -4 0 -8 -7 -8 -15 0 -28 18 -15 26 18 6 28 8 30 16 12 6
-15 7 -13 3 9 -5 23 -3 27 9 23 9 -4 15 -3 15 1 -4 22 3 32 22 32 11 0 27 7
35 15 20 20 32 19 30 -2 -1 -14 6 -18 32 -17 17 1 32 -3 32 -8 0 -15 28 10 33
30 2 9 3 5 2 -10 -1 -16 2 -28 7 -28 4 0 8 5 8 11 0 5 4 8 9 4 5 -3 11 9 13
27 2 24 9 34 23 36 16 3 17 1 5 -7 -13 -9 -11 -14 13 -33 45 -36 107 -27 107
15 0 9 6 18 13 20 7 3 5 6 -5 6 -21 1 -24 21 -4 21 8 0 17 8 19 18 4 13 5 11
6 -5 0 -13 5 -23 9 -23 5 0 14 -12 21 -26 l12 -26 19 22 c17 20 20 20 26 6 9
-23 40 -3 47 31 3 16 9 40 13 56 5 24 3 27 -17 28 -13 0 -39 1 -57 2 -26 2
-32 -2 -33 -18 -1 -16 -2 -16 -6 -3 -3 12 -19 17 -66 20 -34 1 -81 1 -104 -1
l-43 -3 -1 -47 c-2 -34 -3 -38 -6 -16 -3 16 -10 33 -16 37 -9 6 -9 8 1 8 6 0
12 5 12 11 0 6 -15 9 -37 7 -22 -2 -38 2 -41 10 -2 6 2 10 10 9 7 -2 10 -2 6
0 -5 3 -8 12 -9 21 0 14 -2 13 -9 -3 -8 -19 -9 -19 -9 3 -1 19 4 22 34 22 28
0 35 -4 35 -19 0 -10 7 -21 15 -25 8 -3 15 -1 15 4 0 6 -4 10 -10 10 -5 0 -10
7 -10 15 0 9 9 15 25 15 14 0 25 5 25 10 0 6 -1 9 -2 8 -2 -1 -48 -5 -103 -8z
m-156 -97 c0 -25 -1 -25 -8 -8 -5 11 -7 23 -4 28 8 14 13 7 12 -20z m-102 -5
c-3 -8 -6 -5 -6 6 -1 11 2 17 5 13 3 -3 4 -12 1 -19z m390 -10 c-3 -7 -5 -2
-5 12 0 14 2 19 5 13 2 -7 2 -19 0 -25z m68 -17 c3 -5 1 -12 -5 -16 -5 -3 -10
1 -10 9 0 18 6 21 15 7z m-424 -39 c-6 -11 -7 -22 -4 -26 3 -3 1 -6 -5 -6 -15
0 -15 15 0 40 16 24 23 18 9 -8z m174 -12 c-3 -5 -12 -10 -18 -10 -7 0 -6 4 3
10 19 12 23 12 15 0z"/>
<path d="M2015 790 c3 -5 11 -10 16 -10 6 0 7 5 4 10 -3 6 -11 10 -16 10 -6 0
-7 -4 -4 -10z"/>
<path d="M3324 773 c4 -16 23 -42 42 -58 24 -22 33 -36 28 -48 -4 -12 -1 -17
10 -17 10 0 13 5 9 17 -5 12 1 10 25 -7 18 -13 29 -26 27 -29 -3 -2 -11 1 -17
7 -18 18 -33 15 -18 -3 7 -9 10 -18 6 -22 -3 -4 -13 2 -22 13 -15 18 -15 18
-5 -3 8 -16 7 -22 -5 -27 -12 -5 -15 -2 -10 9 3 9 2 13 -4 10 -16 -10 -12 -20
19 -43 21 -15 32 -18 37 -10 4 7 3 8 -5 4 -6 -4 -14 0 -17 9 -11 28 2 26 34
-5 37 -35 41 -45 12 -30 -28 15 -25 5 5 -14 l26 -17 -3 41 c-3 40 -12 51 -21
28 -3 -7 -6 2 -6 21 -1 25 2 32 14 27 18 -7 20 5 3 22 -9 9 -9 12 0 12 28 0 7
23 -73 80 -47 33 -88 60 -91 60 -3 0 -3 -12 0 -27z m141 -93 c-3 -5 -12 -10
-18 -10 -7 0 -6 4 3 10 19 12 23 12 15 0z m-5 -76 c0 -8 -5 -12 -10 -9 -6 4
-8 11 -5 16 9 14 15 11 15 -7z"/>
<path d="M732 765 c0 -16 2 -22 5 -12 2 9 2 23 0 30 -3 6 -5 -1 -5 -18z"/>
<path d="M480 768 c0 -9 -6 -19 -12 -21 -10 -4 -10 -6 0 -6 14 -1 28 26 18 36
-3 4 -6 -1 -6 -9z"/>
<path d="M502 760 c0 -14 2 -19 5 -12 2 6 2 18 0 25 -3 6 -5 1 -5 -13z"/>
<path d="M961 775 c1 -22 16 -48 22 -38 3 5 0 19 -8 29 -8 10 -14 15 -14 9z"/>
<path d="M1000 764 c0 -8 5 -12 10 -9 6 4 8 11 5 16 -9 14 -15 11 -15 -7z"/>
<path d="M70 761 c0 -5 5 -13 10 -16 6 -3 10 -2 10 4 0 5 -4 13 -10 16 -5 3
-10 2 -10 -4z"/>
<path d="M231 754 c0 -11 3 -14 6 -6 3 7 2 16 -1 19 -3 4 -6 -2 -5 -13z"/>
<path d="M862 754 c-9 -10 -10 -19 -4 -27 6 -7 12 -23 15 -37 2 -14 4 -1 3 27
-1 29 -1 53 -1 53 0 -1 -6 -8 -13 -16z"/>
<path d="M2731 725 c-11 -44 -24 -57 -34 -32 -3 7 -6 5 -6 -5 -1 -10 4 -18 9
-18 6 0 10 -9 10 -20 0 -13 -7 -20 -20 -20 -12 0 -20 -7 -20 -17 0 -14 2 -15
9 -4 6 9 19 11 42 7 27 -6 30 -5 17 4 -10 6 -18 15 -18 20 0 5 8 11 18 13 16
4 16 5 0 6 -10 0 -18 6 -18 11 0 6 8 10 18 11 9 0 12 3 5 5 -14 6 -6 34 14 50
11 10 11 13 -1 23 -11 9 -16 3 -25 -34z"/>
<path d="M3250 760 c0 -5 5 -10 11 -10 5 0 7 5 4 10 -3 6 -8 10 -11 10 -2 0
-4 -4 -4 -10z"/>
<path d="M1281 726 c-24 -39 -42 -48 -62 -34 -12 8 -11 9 2 5 15 -5 63 36 53
45 -8 8 -99 -29 -96 -38 2 -5 11 -22 21 -37 l18 -28 46 50 c26 28 47 55 47 61
0 17 -8 11 -29 -24z"/>
<path d="M940 730 c0 -5 5 -10 11 -10 5 0 7 5 4 10 -3 6 -8 10 -11 10 -2 0 -4
-4 -4 -10z"/>
<path d="M2500 730 c0 -5 5 -10 11 -10 5 0 7 5 4 10 -3 6 -8 10 -11 10 -2 0
-4 -4 -4 -10z"/>
<path d="M2990 711 c0 -12 5 -21 10 -21 6 0 10 6 10 14 0 8 -4 18 -10 21 -5 3
-10 -3 -10 -14z"/>
<path d="M2755 710 c-3 -5 -1 -10 4 -10 6 0 11 5 11 10 0 6 -2 10 -4 10 -3 0
-8 -4 -11 -10z"/>
<path d="M2907 705 c-59 -16 -59 -16 -39 -35 14 -13 15 -12 9 3 -4 11 -1 17 8
17 8 0 15 -4 15 -10 0 -5 4 -10 10 -10 5 0 7 7 4 15 -4 8 -1 15 5 15 6 0 11
-5 11 -11 0 -6 7 -3 16 5 8 9 20 14 25 11 5 -4 9 -1 9 4 0 14 -12 13 -73 -4z"/>
<path d="M1080 699 c0 -5 -4 -7 -10 -4 -6 4 -7 -1 -3 -11 4 -11 8 -13 11 -6 2
7 8 10 13 7 5 -4 6 1 3 9 -7 18 -14 21 -14 5z"/>
<path d="M1585 700 c-3 -5 -1 -10 4 -10 6 0 11 5 11 10 0 6 -2 10 -4 10 -3 0
-8 -4 -11 -10z"/>
<path d="M1627 680 c3 -11 7 -20 9 -20 2 0 4 9 4 20 0 11 -4 20 -9 20 -5 0 -7
-9 -4 -20z"/>
<path d="M1659 698 c-5 -18 -6 -38 -1 -34 7 8 12 36 6 36 -2 0 -4 -1 -5 -2z"/>
<path d="M1047 675 c6 -18 5 -19 -12 -5 -17 14 -18 14 -6 -8 18 -34 6 -39 -14
-5 -9 15 -13 19 -9 8 4 -11 7 -28 8 -37 0 -23 3 -22 50 6 36 23 40 23 56 8 26
-25 101 -149 116 -190 7 -21 13 -29 14 -19 0 26 -87 183 -118 212 -19 18 -30
21 -43 15 -13 -7 -21 -4 -33 13 -14 19 -15 20 -9 2z"/>
<path d="M2540 679 c0 -7 3 -10 6 -7 3 3 28 0 57 -8 57 -15 77 -12 25 4 -65
20 -88 23 -88 11z"/>
<path d="M3311 680 c22 -14 3 -23 -23 -10 -21 11 -22 11 -7 -4 11 -12 24 -15
41 -11 32 8 32 30 0 32 -18 1 -21 -1 -11 -7z"/>
<path d="M3380 681 c0 -7 -4 -9 -10 -6 -5 3 -12 -6 -16 -21 -4 -17 -9 -22 -14
-14 -5 8 -10 8 -14 2 -3 -5 6 -17 20 -27 25 -16 26 -16 19 4 -5 17 -3 20 12
15 17 -5 17 -5 0 6 -18 11 -18 12 0 25 10 7 15 17 10 21 -4 4 -7 2 -7 -5z"/>
<path d="M1580 670 c0 -5 5 -10 11 -10 5 0 7 5 4 10 -3 6 -8 10 -11 10 -2 0
-4 -4 -4 -10z"/>
<path d="M1932 630 c1 -43 3 -50 9 -32 5 14 5 37 0 55 -8 29 -9 26 -9 -23z"/>
<path d="M951 653 c-14 -9 -118 -73 -232 -142 -114 -69 -270 -164 -346 -211
-76 -46 -144 -85 -151 -87 -21 -3 -21 -7 -4 -23 14 -13 15 -12 9 5 -6 15 -3
14 13 -5 11 -14 20 -29 20 -34 0 -6 -7 -1 -16 10 -15 19 -15 18 -9 -3 5 -18 0
-25 -26 -39 -31 -15 -33 -15 -46 2 -21 28 -15 39 7 13 22 -27 25 -22 9 15 -10
20 -15 23 -30 15 -16 -8 -17 -13 -7 -34 6 -14 15 -25 20 -25 4 0 8 -7 8 -16 0
-8 4 -12 10 -9 5 3 10 -1 10 -10 0 -20 31 -75 42 -75 5 0 -1 18 -12 40 -27 52
-25 61 13 86 26 17 34 29 34 53 0 21 -3 27 -9 19 -5 -9 -8 -10 -8 -1 0 6 5 15
11 19 13 8 30 -16 21 -30 -3 -6 14 2 39 16 44 26 56 47 30 56 -10 3 -12 0 -8
-11 6 -16 -8 -34 -16 -20 -2 5 -2 3 -1 -4 4 -17 -23 -24 -36 -8 -15 18 98 89
118 73 9 -8 11 -7 6 6 -3 9 -2 16 4 16 22 0 19 -28 -4 -39 -15 -7 -23 -7 -19
-1 3 5 -1 10 -9 10 -17 0 -20 -9 -8 -26 8 -12 42 -15 42 -3 0 4 27 24 60 45
33 20 60 41 60 45 0 5 3 8 8 7 4 -1 23 7 44 17 36 18 68 15 68 -5 0 -6 -4 -8
-10 -5 -12 7 -12 -2 0 -30 7 -17 9 -17 9 -2 1 21 24 22 41 2 10 -12 10 -15 -2
-15 -22 0 -37 -41 -25 -68 8 -17 7 -26 -3 -35 -10 -10 -12 -9 -7 5 4 11 -1 18
-16 22 -39 10 -54 6 -81 -21 -25 -24 -26 -28 -11 -39 14 -11 14 -12 0 -18 -9
-3 -13 -11 -9 -17 4 -8 9 -7 15 2 8 12 11 11 19 -1 5 -8 9 -19 9 -25 0 -5 -3
-4 -6 3 -9 22 -25 13 -18 -10 4 -16 3 -19 -3 -10 -17 24 -84 53 -81 35 1 -5 1
-17 0 -28 -1 -16 -3 -17 -10 -6 -8 12 -12 12 -25 2 -17 -14 -22 -51 -7 -51 4
0 6 -11 3 -25 -4 -23 -1 -25 32 -25 20 0 50 7 65 15 16 8 31 12 34 9 3 -3 10
3 16 14 6 10 25 25 43 33 18 7 49 24 68 38 19 14 37 26 39 28 2 1 -7 18 -19
37 -12 20 -17 36 -11 36 5 0 13 -9 16 -21 5 -16 12 -19 31 -15 21 6 24 3 24
-19 0 -14 -4 -25 -8 -25 -5 0 -17 -7 -28 -16 -14 -12 -15 -14 -3 -11 11 4 16
0 15 -11 -1 -23 -18 -33 -33 -20 -8 6 -16 8 -20 5 -3 -4 6 -12 20 -18 25 -11
28 -29 6 -29 -6 0 -7 5 -4 10 3 6 -1 10 -11 10 -11 0 -14 -4 -8 -13 5 -7 2 -5
-7 5 -19 20 -35 12 -18 -9 8 -9 8 -13 1 -13 -6 0 -16 8 -21 18 -6 9 -11 12
-11 6 0 -5 6 -16 13 -23 10 -11 9 -13 -6 -8 -10 4 -16 3 -13 -2 8 -12 55 -7
89 9 26 13 32 25 29 62 -1 10 3 18 8 18 6 0 9 3 8 8 -1 4 6 25 16 47 21 50 92
250 101 288 6 23 5 26 -10 21 -12 -5 -13 -9 -5 -14 9 -5 6 -13 -8 -26 -10 -11
-18 -29 -17 -41 1 -12 -1 -22 -4 -21 -23 2 -31 -6 -37 -37 -6 -34 -22 -58 -21
-32 1 41 -3 48 -25 41 -13 -4 -26 -11 -30 -17 -4 -6 -24 8 -48 33 -37 38 -40
45 -26 58 11 11 18 12 28 4 15 -12 57 12 43 25 -4 5 -10 2 -12 -4 -3 -7 -11
-13 -20 -13 -13 0 -13 2 1 15 8 8 18 15 21 15 4 0 32 16 63 36 31 20 81 52
110 71 30 19 50 38 46 44 -4 7 1 9 14 5 27 -9 39 12 16 28 -16 13 -16 14 2 24
10 6 14 12 9 12 -6 0 -21 -8 -34 -17z m16 -30 c3 -7 -4 -9 -18 -6 -18 5 -21 3
-16 -10 6 -16 -18 -32 -34 -22 -5 4 -6 -2 -2 -11 4 -11 2 -15 -4 -11 -6 4 -16
0 -23 -9 -7 -8 -19 -13 -26 -10 -8 3 -13 1 -11 -4 1 -6 -13 -20 -31 -31 -18
-12 -32 -18 -30 -13 2 5 -1 9 -7 9 -5 0 -9 -5 -8 -10 4 -16 -38 -38 -49 -27
-14 14 1 35 20 27 9 -3 13 -3 9 1 -4 4 26 28 66 53 149 96 156 99 164 74z
m-267 -174 c0 -3 -12 -4 -26 -1 -19 3 -25 1 -20 -7 4 -6 12 -8 18 -5 7 4 8 2
4 -5 -4 -6 -16 -9 -27 -6 -14 5 -17 3 -13 -9 8 -20 0 -21 -15 -2 -10 12 -5 19
26 39 35 22 52 21 53 -4z m-89 -45 c12 -15 11 -16 -9 -10 -18 6 -21 4 -15 -10
5 -13 3 -16 -10 -11 -10 4 -17 2 -17 -4 0 -7 -9 -9 -21 -6 -15 4 -19 2 -15 -8
2 -7 -3 -19 -11 -27 -14 -11 -16 -11 -10 4 4 12 2 15 -8 12 -8 -3 -11 -13 -8
-21 5 -12 1 -14 -15 -9 -17 6 -21 4 -16 -8 3 -9 2 -16 -4 -16 -5 0 -12 6 -15
14 -7 17 80 79 100 72 7 -3 12 -1 10 4 -2 8 32 39 44 40 4 0 13 -7 20 -16z
m92 -118 c4 -10 1 -13 -8 -9 -8 3 -12 9 -9 14 7 12 11 11 17 -5z m25 -51 c-3
-3 -9 2 -12 12 -6 14 -5 15 5 6 7 -7 10 -15 7 -18z m46 -14 c4 -5 -3 -7 -14
-4 -23 6 -26 13 -6 13 8 0 17 -4 20 -9z m-91 -81 c3 -11 1 -18 -4 -14 -5 3 -9
12 -9 20 0 20 7 17 13 -6z m-63 -10 c0 -5 -5 -10 -11 -10 -5 0 -7 5 -4 10 3 6
8 10 11 10 2 0 4 -4 4 -10z m-50 -74 c0 -3 -4 -8 -10 -11 -5 -3 -10 -1 -10 4
0 6 5 11 10 11 6 0 10 -2 10 -4z"/>
<path d="M3185 655 c-23 -11 -24 -13 -6 -9 l24 6 -21 -29 c-32 -45 -100 -103
-120 -103 -15 1 -15 2 2 12 34 19 73 65 80 93 6 23 4 26 -9 21 -9 -3 -34 -9
-56 -12 -22 -4 -39 -12 -39 -20 0 -8 -8 -11 -21 -9 -24 5 -79 -5 -79 -14 0 -6
58 -46 99 -69 33 -17 70 -2 115 49 29 32 73 100 64 99 -2 -1 -16 -7 -33 -15z"/>
<path d="M2680 649 c0 -5 5 -7 10 -4 6 3 10 8 10 11 0 2 -4 4 -10 4 -5 0 -10
-5 -10 -11z"/>
<path d="M1325 640 c3 -6 1 -10 -5 -10 -6 0 -8 -5 -4 -12 5 -8 2 -9 -11 -4
-18 6 -18 6 -2 -12 25 -27 21 -38 -5 -16 l-23 19 19 -22 c11 -13 14 -23 8 -23
-6 0 -18 10 -26 22 -9 12 -16 17 -16 11 0 -6 7 -16 15 -23 9 -7 13 -20 10 -29
-3 -9 11 1 33 22 33 32 42 36 63 28 25 -9 147 -131 167 -166 7 -12 12 -14 12
-6 0 18 -169 191 -187 191 -8 0 -16 6 -19 14 -3 8 -12 17 -20 20 -9 3 -12 1
-9 -4z m21 -39 c-9 -14 -26 -14 -26 0 0 5 5 7 12 3 8 -5 9 -1 4 12 -5 14 -4
16 5 7 6 -6 8 -16 5 -22z"/>
<path d="M2532 628 c-15 -33 -11 -60 10 -66 10 -2 16 -8 13 -12 -2 -4 11 -7
29 -8 26 -1 35 4 45 24 14 31 14 37 1 29 -5 -3 -10 -2 -10 4 0 6 -6 8 -14 5
-8 -3 -17 0 -21 6 -11 18 0 22 29 11 33 -13 34 2 1 17 -40 19 -70 15 -83 -10z
m38 -14 c0 -8 -5 -12 -10 -9 -6 4 -8 11 -5 16 9 14 15 11 15 -7z m-15 -24 c3
-5 1 -10 -4 -10 -6 0 -11 5 -11 10 0 6 2 10 4 10 3 0 8 -4 11 -10z m55 -20 c0
-5 -9 -6 -20 -3 -11 3 -20 9 -20 13 0 5 9 6 20 3 11 -3 20 -9 20 -13z"/>
<path d="M2845 640 c-3 -5 -1 -10 4 -10 6 0 11 5 11 10 0 6 -2 10 -4 10 -3 0
-8 -4 -11 -10z"/>
<path d="M1967 538 c-15 -50 -25 -94 -22 -96 5 -6 8 3 30 80 16 56 16 57 61
64 24 3 44 10 44 15 0 7 -61 29 -81 29 -3 0 -18 -41 -32 -92z"/>
<path d="M2700 600 c0 -5 5 -10 11 -10 5 0 7 5 4 10 -3 6 -8 10 -11 10 -2 0
-4 -4 -4 -10z"/>
<path d="M3278 560 c-38 -69 -35 -75 7 -13 36 54 40 63 28 63 -5 0 -20 -23
-35 -50z"/>
<path d="M2150 590 c0 -15 39 -72 40 -58 0 4 -9 22 -20 40 -11 18 -20 26 -20
18z"/>
<path d="M2730 584 c0 -9 -5 -12 -12 -8 -7 4 -8 3 -4 -4 10 -16 14 -15 26 8 7
14 7 20 0 20 -5 0 -10 -7 -10 -16z"/>
<path d="M2660 576 c0 -8 -3 -22 -6 -30 -5 -12 -2 -15 10 -10 10 4 15 13 11
22 -3 8 0 19 7 24 10 6 8 8 -4 8 -10 0 -18 -6 -18 -14z"/>
<path d="M2045 570 c11 -5 27 -9 35 -9 13 -1 13 0 0 9 -8 5 -24 9 -35 9 l-20
0 20 -9z"/>
<path d="M2864 565 c23 -17 14 -20 -14 -5 -13 7 -21 7 -26 -2 -5 -7 -3 -8 6
-3 9 5 11 1 6 -16 -3 -13 -3 -18 0 -11 11 23 35 15 102 -34 2 -1 -1 -11 -7
-22 -9 -16 -8 -20 4 -18 8 1 18 6 22 11 4 4 2 5 -4 1 -7 -4 -13 -2 -13 3 0 6
7 11 16 11 12 0 15 -6 11 -21 -4 -16 -3 -18 9 -8 11 9 14 7 14 -11 0 -23 20
-24 28 0 3 8 0 10 -8 5 -8 -5 -11 -4 -6 3 3 6 -3 16 -15 22 -11 7 -18 14 -16
17 3 2 19 -5 36 -18 25 -18 28 -25 20 -41 -6 -11 -8 -22 -6 -25 3 -2 8 5 12
16 3 12 11 21 16 21 6 0 6 -8 -1 -20 -9 -16 -8 -19 6 -13 14 5 15 3 6 -14 -9
-15 -8 -20 4 -20 8 0 13 6 10 13 -3 8 0 11 8 8 8 -3 13 -13 11 -22 -1 -9 0
-12 2 -5 6 17 28 23 44 11 11 -8 10 -9 -3 -4 -12 3 -18 0 -18 -10 0 -9 5 -12
11 -8 7 4 10 1 7 -7 -3 -8 -11 -13 -17 -12 -6 2 -11 -1 -11 -7 0 -14 53 -26
58 -12 2 8 7 8 17 -1 9 -9 10 -16 2 -25 -7 -9 -6 -16 3 -25 7 -7 10 -7 7 -1
-8 14 19 52 29 41 4 -4 2 -13 -4 -19 -7 -7 -12 -17 -12 -22 1 -6 9 -1 20 12
10 12 21 18 24 13 4 -5 2 -12 -4 -16 -5 -3 -10 -13 -10 -22 0 -11 5 -9 20 8
21 26 26 19 10 -12 -14 -25 1 -24 23 2 17 19 17 21 -5 40 -34 29 -426 289
-435 289 -4 0 1 -7 11 -15z m91 -62 c11 -7 16 -13 12 -13 -10 0 -87 51 -87 57
0 5 27 -11 75 -44z m145 -94 l25 -20 -32 16 c-18 8 -33 18 -33 20 0 10 16 4
40 -16z m85 -55 c14 -9 25 -20 25 -25 0 -5 -11 -2 -24 6 -21 14 -24 14 -29 0
-4 -8 -12 -15 -18 -15 -8 0 -6 7 4 18 10 10 14 22 10 25 -12 13 8 7 32 -9z"/>
<path d="M3306 549 c-38 -45 -31 -77 20 -93 20 -6 62 23 65 44 1 6 2 16 3 23
1 6 -4 20 -12 29 -11 14 -18 15 -28 7 -8 -6 -12 -14 -10 -18 3 -4 -4 -18 -15
-31 -16 -21 -19 -22 -19 -7 0 11 9 32 21 48 27 39 8 37 -25 -2z m56 -41 c-7
-7 -12 -8 -12 -2 0 14 12 26 19 19 2 -3 -1 -11 -7 -17z"/>
<path d="M20 557 c0 -9 -4 -17 -10 -17 -5 0 -10 -10 -10 -22 0 -18 13 -18 16
0 0 4 4 15 9 25 4 10 5 21 1 24 -3 4 -6 -1 -6 -10z"/>
<path d="M2390 562 c0 -4 11 -9 26 -10 14 -1 23 2 19 8 -7 12 -45 14 -45 2z"/>
<path d="M1572 535 c0 -16 2 -22 5 -12 2 9 2 23 0 30 -3 6 -5 -1 -5 -18z"/>
<path d="M1593 525 c0 -22 2 -30 4 -17 2 12 2 30 0 40 -3 9 -5 -1 -4 -23z"/>
<path d="M2059 544 c18 -8 36 -13 39 -10 6 6 -43 26 -61 25 -7 0 3 -7 22 -15z"/>
<path d="M2248 553 c7 -3 16 -2 19 1 4 3 -2 6 -13 5 -11 0 -14 -3 -6 -6z"/>
<path d="M1701 543 l46 -4 -7 -44 -7 -45 39 0 c35 0 38 2 38 28 -1 26 -1 26
-16 7 -12 -16 -16 -17 -23 -6 -7 11 -10 11 -15 0 -3 -8 -4 5 -2 29 l4 42 -51
-2 -52 -2 46 -3z"/>
<path d="M2208 543 c7 -3 16 -2 19 1 4 3 -2 6 -13 5 -11 0 -14 -3 -6 -6z"/>
<path d="M2710 539 c0 -5 -4 -8 -8 -5 -10 6 -43 -30 -35 -38 4 -3 1 -6 -4 -6
-6 0 -14 6 -16 13 -3 7 -6 5 -6 -5 -1 -10 5 -18 13 -18 8 0 13 -8 11 -17 -1
-10 0 -13 2 -6 2 7 11 9 19 6 8 -3 14 0 14 7 0 6 -4 8 -10 5 -5 -3 -10 -1 -10
4 0 6 5 11 11 11 6 0 8 9 4 23 -6 21 -6 21 9 3 9 -11 16 -16 17 -10 0 5 2 17
4 27 2 9 -1 17 -6 17 -5 0 -9 -5 -9 -11z"/>
<path d="M65 529 c-4 -6 -5 -12 -2 -15 2 -3 7 2 10 11 7 17 1 20 -8 4z"/>
<path d="M895 529 c-4 -5 -4 -13 -1 -16 3 -4 6 0 6 8 0 11 2 11 10 -1 6 -9 10
-10 10 -3 0 17 -17 25 -25 12z"/>
<path d="M1767 533 c-4 -3 -7 -11 -7 -17 0 -6 5 -5 12 2 6 6 9 14 7 17 -3 3
-9 2 -12 -2z"/>
<path d="M1790 525 c0 -8 5 -15 10 -15 6 0 10 7 10 15 0 8 -4 15 -10 15 -5 0
-10 -7 -10 -15z"/>
<path d="M2396 532 c-3 -6 -1 -14 5 -17 15 -10 25 3 12 16 -7 7 -13 7 -17 1z"/>
<path d="M2535 525 c17 -8 41 -14 55 -14 15 0 5 6 -25 14 -62 17 -69 17 -30 0z"/>
<path d="M307 489 c7 -23 12 -43 10 -46 -7 -6 -158 -5 -165 1 -3 4 9 6 26 6
18 0 32 5 32 11 0 6 -7 9 -15 5 -8 -3 -15 -1 -15 5 0 6 -6 6 -17 1 -10 -5 -28
-8 -40 -6 -15 3 -23 -1 -23 -11 0 -10 -11 -15 -32 -16 -49 -1 -69 -11 -58 -29
7 -10 10 -11 10 -2 0 6 6 12 14 12 8 0 17 -6 19 -12 4 -10 8 -9 16 2 10 13 12
13 21 0 8 -13 10 -12 10 4 0 15 3 16 15 6 26 -21 17 -27 -47 -29 -35 -1 -65
-4 -67 -7 -3 -3 91 -4 209 -2 134 2 215 7 217 13 2 7 -12 9 -37 7 -32 -3 -40
-1 -40 12 0 9 5 16 10 16 6 0 10 -6 10 -12 0 -9 4 -8 10 2 8 12 11 13 19 1 7
-10 10 -10 13 -1 3 9 9 8 21 -4 15 -15 17 -15 17 -2 0 10 9 16 23 16 19 1 67
30 67 42 0 2 -9 4 -20 4 -11 0 -19 -5 -17 -11 2 -5 -12 -14 -31 -20 -40 -12
-145 -7 -136 6 3 5 0 9 -5 9 -6 0 -11 9 -11 19 0 25 -10 51 -20 51 -4 0 -1
-19 7 -41z m-170 -45 c-3 -3 -12 -4 -19 -1 -8 3 -5 6 6 6 11 1 17 -2 13 -5z
m23 -40 c0 -8 -4 -12 -10 -9 -5 3 -10 13 -10 21 0 8 5 12 10 9 6 -3 10 -13 10
-21z m39 7 c1 9 8 16 16 16 27 0 11 -32 -17 -35 -23 -3 -26 0 -21 19 6 22 7
22 14 3 6 -14 8 -15 8 -3z m111 7 c0 -10 2 -10 9 0 7 11 9 11 14 -2 4 -9 3
-16 -1 -17 -4 0 -14 -2 -24 -4 -9 -2 -18 5 -21 16 -3 12 0 19 9 19 8 0 14 -6
14 -12z m-40 -14 c0 -14 -3 -14 -15 -4 -8 7 -15 14 -15 16 0 2 7 4 15 4 8 0
15 -7 15 -16z"/>
<path d="M320 518 c0 -4 9 -8 20 -8 11 0 20 4 20 8 0 4 -9 8 -20 8 -11 0 -20
-4 -20 -8z"/>
<path d="M2266 515 c-3 -8 -1 -15 4 -15 6 0 10 7 10 15 0 8 -2 15 -4 15 -2 0
-6 -7 -10 -15z"/>
<path d="M3405 498 c-10 -18 -24 -41 -33 -50 -9 -11 -11 -18 -4 -18 13 0 67
88 59 96 -3 3 -13 -9 -22 -28z"/>
<path d="M1660 509 c0 -5 5 -7 10 -4 6 3 10 8 10 11 0 2 -4 4 -10 4 -5 0 -10
-5 -10 -11z"/>
<path d="M1690 500 c0 -11 -6 -20 -13 -20 -22 0 -19 -59 4 -73 23 -14 25 -52
4 -61 -8 -3 -15 -11 -15 -18 0 -9 3 -8 10 2 8 12 10 11 10 -7 0 -13 4 -23 8
-23 5 0 10 32 11 72 1 39 4 75 7 80 3 4 -7 8 -23 9 -16 0 -22 3 -13 6 26 10
43 53 20 53 -5 0 -10 -9 -10 -20z"/>
<path d="M1718 495 c-3 -14 -1 -25 3 -25 5 0 9 11 9 25 0 14 -2 25 -4 25 -2 0
-6 -11 -8 -25z"/>
<path d="M2866 505 c-3 -8 0 -17 6 -21 6 -4 8 -3 4 4 -3 5 -1 12 6 14 8 3 9 6
1 11 -6 4 -13 0 -17 -8z"/>
<path d="M2450 500 c0 -5 5 -10 11 -10 5 0 7 5 4 10 -3 6 -8 10 -11 10 -2 0
-4 -4 -4 -10z"/>
<path d="M330 485 c0 -8 5 -15 10 -15 6 0 10 7 10 15 0 8 -4 15 -10 15 -5 0
-10 -7 -10 -15z"/>
<path d="M813 485 c-3 -9 -3 -19 1 -22 3 -4 6 1 6 11 0 9 5 14 10 11 6 -3 10
-1 10 4 0 17 -20 13 -27 -4z"/>
<path d="M1885 490 c-19 -8 -19 -9 3 -9 12 -1 22 4 22 9 0 6 -1 10 -2 9 -2 0
-12 -4 -23 -9z"/>
<path d="M2381 493 c-1 -18 19 -27 32 -13 9 10 8 12 -5 7 -9 -3 -19 -1 -22 6
-3 9 -5 9 -5 0z"/>
<path d="M2806 490 c-19 -55 -24 -90 -13 -91 52 -5 85 14 66 37 -5 7 -8 16 -7
22 2 5 0 9 -4 9 -4 -1 -14 7 -22 18 -12 16 -15 17 -20 5z m21 -55 c-7 -14 -16
-25 -20 -25 -5 0 -6 3 -4 8 2 4 7 15 10 25 4 9 11 17 16 17 5 0 4 -11 -2 -25z
m23 -15 c0 -5 -2 -10 -4 -10 -3 0 -8 5 -11 10 -3 6 -1 10 4 10 6 0 11 -4 11
-10z"/>
<path d="M3195 490 c-3 -5 -1 -10 4 -10 6 0 11 5 11 10 0 6 -2 10 -4 10 -3 0
-8 -4 -11 -10z"/>
<path d="M17 484 c-11 -11 5 -34 24 -34 17 0 18 3 7 20 -13 21 -21 24 -31 14z"/>
<path d="M220 473 c0 -13 5 -23 10 -23 13 0 13 11 0 30 -8 12 -10 11 -10 -7z"/>
<path d="M1610 480 c0 -5 5 -10 11 -10 5 0 7 5 4 10 -3 6 -8 10 -11 10 -2 0
-4 -4 -4 -10z"/>
<path d="M443 472 c-18 -2 -33 -7 -33 -13 0 -8 69 -3 78 6 7 7 -15 10 -45 7z"/>
<path d="M250 460 c0 -5 5 -10 10 -10 6 0 10 5 10 10 0 6 -4 10 -10 10 -5 0
-10 -4 -10 -10z"/>
<path d="M762 455 c-17 -19 -1 -19 24 0 14 11 15 14 4 14 -8 0 -21 -6 -28 -14z"/>
<path d="M3241 465 c0 -5 3 -16 8 -23 7 -11 9 -10 14 3 4 9 3 14 -2 10 -5 -3
-12 1 -14 7 -3 7 -6 9 -6 3z"/>
<path d="M2366 451 c-3 -5 4 -11 16 -14 25 -7 33 -3 23 12 -8 13 -32 14 -39 2z"/>
<path d="M2870 450 c0 -5 5 -10 11 -10 5 0 7 5 4 10 -3 6 -8 10 -11 10 -2 0
-4 -4 -4 -10z"/>
<path d="M973 433 c-3 -10 -8 -21 -10 -25 -2 -5 0 -8 5 -8 5 0 12 9 15 20 4
16 9 18 29 11 18 -7 22 -15 21 -37 -2 -28 -2 -28 7 -6 7 17 17 22 32 20 19 -2
23 -9 21 -33 l-1 -30 12 27 c9 21 15 24 29 17 10 -6 14 -15 11 -21 -4 -7 -2
-8 5 -4 6 4 9 11 6 16 -3 4 5 6 17 4 40 -7 -40 26 -100 41 -31 8 -64 18 -74
21 -12 3 -20 -1 -25 -13z"/>
<path d="M3276 433 c-6 -14 -5 -15 5 -6 7 7 10 15 7 18 -3 3 -9 -2 -12 -12z"/>
<path d="M1750 381 c0 -27 -3 -63 -6 -80 -4 -19 -2 -31 4 -31 6 0 12 21 14 48
l3 47 58 3 c31 2 57 7 57 11 0 5 -22 7 -50 5 -47 -3 -50 -2 -50 21 0 16 -6 25
-15 25 -11 0 -15 -12 -15 -49z"/>
<path d="M2882 410 c-12 -20 -11 -21 26 -19 53 4 60 -4 57 -58 -3 -47 -3 -47
8 -16 7 17 15 35 20 39 13 14 7 22 -37 48 -54 31 -58 32 -74 6z"/>
<path d="M1001 404 c0 -11 3 -14 6 -6 3 7 2 16 -1 19 -3 4 -6 -2 -5 -13z"/>
<path d="M1790 411 c0 -7 24 -11 68 -11 135 -1 277 -12 287 -22 11 -10 -229
-3 -246 8 -5 3 -9 0 -9 -5 0 -14 2 -15 220 -25 109 -5 141 -4 130 4 -11 9 -12
13 -2 17 31 12 4 21 -90 26 -294 18 -358 20 -358 8z m420 -41 c0 -5 -11 -10
-25 -10 -14 0 -25 5 -25 10 0 6 11 10 25 10 14 0 25 -4 25 -10z"/>
<path d="M2363 408 c2 -7 10 -13 17 -13 7 0 15 6 18 13 2 7 -5 12 -18 12 -13
0 -20 -5 -17 -12z"/>
<path d="M2653 403 c-3 -10 -8 -21 -10 -25 -8 -14 2 -8 19 12 10 11 13 22 8
25 -6 4 -13 -2 -17 -12z"/>
<path d="M3315 409 c-4 -6 -5 -12 -2 -15 2 -3 7 2 10 11 7 17 1 20 -8 4z"/>
<path d="M1570 402 c0 -4 5 -13 12 -20 20 -20 -1 -26 -22 -7 -12 11 -20 13
-20 6 0 -6 6 -14 14 -17 8 -3 12 -12 9 -20 -5 -13 -8 -13 -23 1 -24 22 -36 19
-16 -4 10 -11 15 -25 11 -30 -3 -6 -1 -11 4 -11 6 0 11 4 11 8 0 16 41 52 51
46 6 -3 3 8 -5 25 -16 30 -26 39 -26 23z"/>
<path d="M3336 394 c-3 -8 -2 -13 3 -9 5 3 11 0 13 -7 3 -7 7 -8 10 -3 3 6 0
15 -7 22 -10 10 -14 9 -19 -3z"/>
<path d="M947 372 c-22 -24 -77 -177 -77 -214 0 -15 5 -28 10 -28 7 0 7 -6 0
-19 -5 -11 -10 -23 -10 -28 1 -4 7 3 14 16 10 18 11 30 3 42 -12 19 29 161 63
217 22 36 21 41 -3 14z"/>
<path d="M1060 374 c0 -8 5 -12 10 -9 6 3 10 10 10 16 0 5 -4 9 -10 9 -5 0
-10 -7 -10 -16z"/>
<path d="M1210 369 c12 -8 9 -10 -11 -6 -22 3 -25 0 -21 -15 2 -10 8 -21 13
-24 5 -3 6 2 2 12 -5 13 -2 15 17 9 15 -5 20 -4 16 4 -4 6 0 11 9 11 9 0 13
-5 10 -10 -3 -6 6 -15 20 -20 16 -6 24 -15 20 -22 -4 -7 0 -5 8 5 15 17 33 24
23 8 -4 -5 4 -7 16 -4 19 4 21 3 8 -7 -13 -10 -12 -11 4 -6 22 8 191 -55 175
-64 -7 -5 -5 -9 6 -13 9 -4 13 -3 10 3 -3 6 1 10 9 10 10 0 13 -6 10 -15 -4
-8 -1 -15 5 -15 6 0 8 -8 5 -17 -2 -10 1 -8 7 5 10 18 18 22 38 17 54 -14 9 6
-191 84 -203 80 -238 91 -208 70z m80 -29 c18 -12 2 -12 -25 0 -13 6 -15 9 -5
9 8 0 22 -4 30 -9z"/>
<path d="M2765 339 c-5 -21 -3 -34 6 -39 15 -10 91 -6 108 4 7 4 18 3 24 -3
11 -8 11 -33 1 -128 -15 -139 -17 -179 -7 -169 4 4 14 85 23 181 l15 173 -35
6 c-19 3 -56 6 -82 6 -44 0 -47 -2 -53 -31z"/>
<path d="M3305 359 c-4 -6 -5 -13 -2 -16 7 -7 27 6 27 18 0 12 -17 12 -25 -2z"/>
<path d="M2991 329 c-15 -42 -13 -48 4 -25 14 18 15 15 9 -36 -6 -54 -5 -57
15 -55 24 1 26 8 9 25 -8 8 -8 12 -1 12 13 0 27 -29 24 -48 -1 -9 6 -12 21
-10 17 2 23 9 22 26 -1 27 4 28 22 5 12 -16 12 -15 8 7 -4 17 -3 21 4 12 7
-11 11 -10 20 1 9 11 8 18 -7 31 -11 10 -25 15 -32 10 -7 -4 -10 -3 -6 3 4 6
0 17 -9 24 -14 11 -18 11 -28 -3 -11 -15 -13 -15 -24 2 -10 16 -9 18 3 14 21
-8 19 6 -2 22 -28 21 -40 17 -52 -17z m106 -65 c-3 -3 -12 -4 -19 -1 -8 3 -5
6 6 6 11 1 17 -2 13 -5z"/>
<path d="M1810 339 c0 -5 -5 -7 -11 -3 -7 4 -10 1 -7 -6 7 -23 28 -23 28 -1 0
12 -2 21 -5 21 -3 0 -5 -5 -5 -11z"/>
<path d="M1830 330 c0 -11 5 -20 10 -20 6 0 10 9 10 20 0 11 -4 20 -10 20 -5
0 -10 -9 -10 -20z"/>
<path d="M1875 337 c-4 -10 -5 -21 -1 -24 10 -10 18 4 13 24 -4 17 -4 17 -12
0z"/>
<path d="M1910 326 c0 -22 3 -27 11 -19 8 8 8 16 0 30 -9 16 -10 14 -11 -11z"/>
<path d="M535 315 c-16 -13 -26 -24 -21 -25 10 0 76 39 76 46 0 12 -28 1 -55
-21z"/>
<path d="M1490 331 c0 -5 7 -12 16 -15 14 -5 15 -4 4 9 -14 17 -20 19 -20 6z"/>
<path d="M3330 330 c0 -5 4 -10 9 -10 6 0 13 5 16 10 3 6 -1 10 -9 10 -9 0
-16 -4 -16 -10z"/>
<path d="M0 260 c0 -52 3 -70 13 -70 23 0 47 35 47 66 0 35 -8 47 -37 63 -23
12 -23 11 -23 -59z"/>
<path d="M120 325 c0 -13 64 -75 79 -75 13 0 11 4 -7 18 -21 16 -21 19 -7 40
16 22 16 22 -24 22 -23 0 -41 -2 -41 -5z"/>
<path d="M216 315 c-3 -9 3 -19 15 -25 23 -13 35 -7 42 20 4 17 0 20 -23 20
-15 0 -30 -7 -34 -15z"/>
<path d="M2260 299 c-12 -16 -20 -32 -18 -34 2 -2 12 9 23 26 11 16 26 29 33
29 8 0 6 -7 -7 -21 -18 -20 -36 -67 -28 -75 1 -2 26 -6 55 -10 35 -4 52 -2 52
5 0 6 -7 11 -15 11 -20 0 -19 16 1 24 27 10 44 7 62 -15 9 -11 26 -25 37 -31
19 -11 19 -10 2 15 -21 32 -22 44 -2 27 8 -7 17 -27 21 -46 3 -18 9 -33 13
-32 3 0 10 0 14 -1 12 -1 -19 -31 -32 -31 -6 0 -11 -5 -11 -11 0 -5 4 -7 10
-4 6 4 8 -5 5 -22 -15 -100 -15 -103 9 -103 13 0 29 7 36 15 18 21 44 20 36
-3 -4 -10 2 -7 13 8 21 26 47 107 39 116 -3 3 -9 -8 -12 -23 -14 -60 -27 -81
-46 -76 -18 5 -18 7 -4 34 8 16 19 29 24 29 6 0 10 9 10 19 0 11 5 23 11 27 7
4 9 24 6 53 -4 30 -3 39 3 26 8 -18 9 -17 9 7 1 24 -4 27 -49 37 -61 13 -60
13 -59 4 1 -5 1 -19 0 -32 -1 -23 -3 -22 -35 15 -27 32 -47 44 -95 57 -81 23
-86 22 -111 -14z m291 -160 c-9 -22 -10 -22 -10 -3 -1 11 2 24 6 27 12 12 14
0 4 -24z m-31 -57 c0 -15 -2 -15 -10 -2 -13 20 -13 33 0 25 6 -3 10 -14 10
-23z"/>
<path d="M3366 322 c-8 -14 21 -44 37 -39 14 4 7 22 -8 19 -7 -1 -15 5 -17 15
-3 14 -5 15 -12 5z"/>
<path d="M1110 302 c0 -10 6 -24 13 -31 10 -10 8 -15 -6 -26 -13 -9 -16 -20
-11 -39 6 -27 24 -36 24 -13 0 6 5 4 11 -6 8 -14 13 -15 24 -5 36 32 45 38 45
29 0 -5 -5 -13 -11 -16 -6 -4 -8 -13 -5 -21 3 -8 1 -14 -5 -14 -6 0 -8 -4 -5
-9 4 -5 0 -12 -6 -14 -8 -3 -6 -6 5 -6 9 -1 17 -7 17 -15 0 -23 19 -29 36 -12
17 18 34 21 34 7 0 -5 13 -9 28 -9 24 1 28 5 24 23 -2 12 4 29 13 38 15 15 15
18 1 23 -9 3 -16 14 -15 23 0 9 3 11 5 5 3 -7 13 -10 23 -7 14 3 21 -4 30 -28
14 -40 14 -39 -3 -39 -10 0 -12 7 -8 22 l5 21 -21 -21 c-30 -30 -28 -46 6 -38
26 6 26 6 7 -9 -17 -14 -18 -17 -5 -25 12 -8 10 -10 -8 -10 -21 0 -22 -1 -8
-16 9 -8 20 -12 26 -9 6 3 13 0 16 -8 2 -7 11 -14 19 -14 15 0 19 10 16 36 -2
7 2 10 7 7 6 -3 12 -1 14 6 3 9 12 8 32 -5 30 -20 63 -16 49 5 -10 17 -4 51
11 60 7 5 5 8 -6 8 -11 0 -20 -11 -24 -28 -10 -41 -12 -43 -50 -25 -22 11 -33
22 -29 31 17 45 17 62 -1 68 -11 3 -40 14 -66 24 l-48 19 -1 -22 c0 -12 -3
-17 -5 -10 -3 7 -12 9 -20 6 -7 -3 -11 -10 -7 -16 3 -6 1 -7 -5 -3 -6 4 -9 13
-5 21 3 8 0 15 -6 15 -6 0 -11 7 -11 15 0 8 -2 15 -4 15 -2 0 -13 3 -23 6 -16
5 -16 4 1 -10 11 -9 14 -16 7 -16 -7 0 -9 -4 -6 -10 3 -6 -1 -7 -9 -4 -9 3
-14 10 -11 15 3 4 -4 6 -15 4 -23 -4 -24 -1 -9 26 9 17 5 22 -25 34 -45 19
-46 19 -46 -3z m80 -81 c0 -5 -7 -12 -16 -15 -14 -5 -15 -4 -4 9 14 17 20 19
20 6z m57 -14 c0 -8 -6 -14 -14 -14 -9 0 -10 4 -2 14 6 7 12 13 14 13 1 0 2
-6 2 -13z m-12 -37 c-3 -5 -11 -10 -16 -10 -6 0 -7 5 -4 10 3 6 11 10 16 10 6
0 7 -4 4 -10z"/>
<path d="M1261 304 c0 -11 3 -14 6 -6 3 7 2 16 -1 19 -3 4 -6 -2 -5 -13z"/>
<path d="M1940 310 c0 -5 7 -10 15 -10 8 0 15 5 15 10 0 6 -7 10 -15 10 -8 0
-15 -4 -15 -10z"/>
<path d="M1295 290 c-3 -5 -1 -10 4 -10 6 0 11 5 11 10 0 6 -2 10 -4 10 -3 0
-8 -4 -11 -10z"/>
<path d="M1356 285 c-3 -9 -6 -22 -5 -28 0 -7 5 -1 10 12 5 13 8 26 5 28 -2 2
-6 -3 -10 -12z"/>
<path d="M475 279 c-4 -6 -4 -13 -1 -16 3 -4 6 -1 6 6 0 7 5 9 10 6 6 -3 10
-1 10 4 0 14 -17 14 -25 0z"/>
<path d="M1325 280 c-3 -5 -1 -10 4 -10 6 0 11 5 11 10 0 6 -2 10 -4 10 -3 0
-8 -4 -11 -10z"/>
<path d="M1388 278 c5 -5 16 -8 23 -6 8 3 3 7 -10 11 -17 4 -21 3 -13 -5z"/>
<path d="M1685 280 c-3 -5 -1 -10 4 -10 6 0 11 5 11 10 0 6 -2 10 -4 10 -3 0
-8 -4 -11 -10z"/>
<path d="M3426 281 c-4 -7 -5 -15 -2 -18 9 -9 19 4 14 18 -4 11 -6 11 -12 0z"/>
<path d="M3469 256 c-11 -20 -25 -36 -31 -36 -5 0 -16 -7 -25 -15 -16 -17 -11
-45 8 -45 6 0 8 7 5 17 -4 10 -4 14 0 10 4 -4 23 16 41 44 19 28 32 53 29 56
-3 3 -15 -11 -27 -31z"/>
<path d="M1105 260 c-3 -5 -1 -10 4 -10 6 0 11 5 11 10 0 6 -2 10 -4 10 -3 0
-8 -4 -11 -10z"/>
<path d="M1260 254 c0 -8 5 -12 10 -9 6 3 10 10 10 16 0 5 -4 9 -10 9 -5 0
-10 -7 -10 -16z"/>
<path d="M1432 244 c-1 -13 0 -24 2 -24 7 0 14 40 7 44 -4 3 -8 -6 -9 -20z"/>
<path d="M2788 263 c7 -3 16 -2 19 1 4 3 -2 6 -13 5 -11 0 -14 -3 -6 -6z"/>
<path d="M2830 260 c19 -13 30 -13 30 0 0 6 -10 10 -22 10 -19 0 -20 -2 -8
-10z"/>
<path d="M3305 244 c-9 -14 -14 -28 -11 -31 3 -3 8 2 12 11 3 9 12 16 20 16
16 0 19 -26 4 -35 -5 -3 -10 -11 -10 -17 0 -6 9 1 20 15 25 31 25 44 1 56 -15
9 -22 6 -36 -15z"/>
<path d="M435 249 c-11 -16 -1 -19 13 -3 7 8 8 14 3 14 -5 0 -13 -5 -16 -11z"/>
<path d="M2225 240 c-3 -5 -1 -10 4 -10 6 0 11 5 11 10 0 6 -2 10 -4 10 -3 0
-8 -4 -11 -10z"/>
<path d="M2670 230 c8 -5 24 -9 35 -9 l20 0 -20 9 c-11 5 -27 9 -35 9 -13 1
-13 0 0 -9z"/>
<path d="M108 218 c-16 -5 -28 -14 -28 -19 0 -5 -6 -9 -12 -9 -7 0 -22 -7 -32
-15 -20 -15 -20 -15 0 -15 10 0 31 11 46 25 15 14 34 25 42 25 8 0 18 5 21 10
7 12 -1 12 -37 -2z"/>
<path d="M386 214 c-5 -13 -4 -14 7 -6 8 7 17 9 20 5 4 -3 7 -1 7 5 0 18 -27
14 -34 -4z"/>
<path d="M1470 219 c0 -5 5 -7 10 -4 6 3 10 8 10 11 0 2 -4 4 -10 4 -5 0 -10
-5 -10 -11z"/>
<path d="M1660 196 c19 -12 21 -15 8 -16 -11 0 -18 -7 -17 -17 0 -11 3 -13 6
-5 2 6 9 12 14 12 4 0 7 -6 5 -12 -1 -7 -1 -10 1 -5 8 14 22 7 17 -8 -4 -10 0
-15 12 -15 16 0 17 2 4 10 -13 8 -12 10 3 10 11 0 17 -8 18 -22 1 -17 3 -18 6
-6 2 9 10 15 18 12 7 -3 11 -14 8 -25 -3 -10 -3 -19 0 -19 2 0 7 9 10 20 4 15
-2 24 -21 35 -15 8 -20 14 -12 14 16 0 71 -28 56 -29 -5 0 -3 -7 4 -15 6 -8 9
-19 5 -26 -6 -8 -2 -8 12 0 11 6 23 7 27 4 3 -3 6 -2 6 4 0 6 -12 14 -26 17
-15 4 -24 10 -21 13 4 3 20 0 36 -7 25 -10 29 -15 21 -30 -14 -27 -12 -39 3
-14 10 17 17 20 36 13 19 -8 22 -14 17 -37 -6 -24 -5 -25 5 -7 7 11 13 21 14
23 1 1 14 -2 28 -7 24 -9 26 -13 16 -38 -6 -15 -6 -24 -1 -18 5 6 12 19 16 30
7 26 -30 47 -200 116 -151 60 -168 66 -134 45z m60 -26 c13 -9 13 -10 0 -10
-8 0 -22 5 -30 10 -13 9 -13 10 0 10 8 0 22 -5 30 -10z"/>
<path d="M1614 181 c1 -22 26 -26 26 -4 0 14 -2 15 -9 4 -8 -12 -10 -12 -13 0
-4 12 -5 12 -4 0z"/>
<path d="M1833 193 c15 -2 37 -2 50 0 12 2 0 4 -28 4 -27 0 -38 -2 -22 -4z"/>
<path d="M1913 170 c0 -14 1 -17 4 -8 3 13 18 18 61 20 l57 3 -61 5 c-59 5
-60 4 -61 -20z"/>
<path d="M2612 180 c0 -14 2 -19 5 -12 2 6 2 18 0 25 -3 6 -5 1 -5 -13z"/>
<path d="M3300 183 c0 -10 -23 -54 -50 -97 -27 -44 -47 -82 -45 -85 6 -5 3
-10 53 72 39 62 64 127 48 127 -3 0 -6 -8 -6 -17z"/>
<path d="M203 166 c25 -28 34 -27 17 3 -6 12 -17 21 -25 21 -9 0 -7 -7 8 -24z"/>
<path d="M1450 178 c0 -7 -3 -23 -6 -35 -4 -16 0 -24 18 -33 19 -9 21 -9 7 2
-11 9 -15 23 -11 46 2 17 2 32 -2 32 -3 0 -6 -6 -6 -12z"/>
<path d="M1580 181 c0 -6 4 -13 10 -16 6 -3 7 1 4 9 -7 18 -14 21 -14 7z"/>
<path d="M2461 174 c0 -11 3 -14 6 -6 3 7 2 16 -1 19 -3 4 -6 -2 -5 -13z"/>
<path d="M2706 171 c-24 -26 -17 -70 14 -92 32 -24 66 -15 86 23 12 24 13 33
2 56 -17 35 -75 43 -102 13z m74 -7 c0 -2 -7 -4 -15 -4 -8 0 -15 4 -15 10 0 5
7 7 15 4 8 -4 15 -8 15 -10z m-50 -15 c-12 -9 -13 -11 -1 -16 11 -5 11 -7 0
-14 -22 -14 9 -29 38 -18 13 5 23 5 23 -1 0 -28 -78 -16 -81 13 -2 23 3 42 14
49 17 11 23 -2 7 -13z m67 -21 c-3 -8 -6 -5 -6 6 -1 11 2 17 5 13 3 -3 4 -12
1 -19z"/>
<path d="M1868 173 c6 -2 18 -2 25 0 6 3 1 5 -13 5 -14 0 -19 -2 -12 -5z"/>
<path d="M2032 171 c-8 -5 8 -6 40 -4 73 6 83 11 23 12 -27 0 -56 -3 -63 -8z"/>
<path d="M190 158 c0 -9 5 -20 10 -23 13 -8 13 5 0 25 -8 13 -10 13 -10 -2z"/>
<path d="M1485 160 c3 -5 8 -10 11 -10 2 0 4 5 4 10 0 6 -5 10 -11 10 -5 0 -7
-4 -4 -10z"/>
<path d="M1944 155 c8 -8 16 -15 19 -15 2 0 4 7 4 15 0 8 -9 15 -19 15 -17 0
-18 -2 -4 -15z"/>
<path d="M1982 150 c0 -14 2 -19 5 -12 2 6 2 18 0 25 -3 6 -5 1 -5 -13z"/>
<path d="M2175 161 l30 -9 -33 -1 c-18 0 -31 -5 -28 -10 3 -5 15 -7 26 -4 15
4 20 0 20 -16 0 -11 5 -21 10 -21 6 0 10 11 10 25 0 34 18 32 23 -2 l4 -28 2
29 c1 24 4 27 24 22 12 -3 25 -6 29 -6 4 0 9 -10 11 -22 l4 -23 2 23 c2 31 19
28 24 -5 l4 -28 2 28 c1 28 19 35 39 15 9 -9 12 -8 12 5 0 12 -9 17 -32 18
-18 0 -42 2 -53 5 -43 9 -160 13 -130 5z"/>
<path d="M750 150 c0 -5 5 -10 10 -10 6 0 10 5 10 10 0 6 -4 10 -10 10 -5 0
-10 -4 -10 -10z"/>
<path d="M2070 153 c8 -3 21 -11 29 -17 11 -8 13 -8 8 1 -4 7 0 13 10 16 10 3
0 5 -22 5 -22 0 -33 -2 -25 -5z"/>
<path d="M1476 137 c3 -10 9 -15 12 -12 3 3 0 11 -7 18 -10 9 -11 8 -5 -6z"/>
<path d="M1550 137 c0 -9 -5 -17 -12 -17 -6 0 -8 -3 -5 -6 4 -4 13 -1 22 6 12
10 15 10 15 -4 0 -9 -7 -19 -15 -22 -12 -5 -12 -8 0 -20 17 -17 45 -18 45 -1
0 8 3 7 10 -3 7 -12 11 -10 20 10 9 23 10 22 7 -12 -2 -21 1 -38 5 -38 8 0 11
14 9 40 -1 12 0 12 7 2 10 -14 42 -6 42 11 0 8 -3 8 -11 0 -8 -8 -16 -7 -29 5
-39 35 -50 42 -68 42 -10 0 -23 5 -30 12 -9 9 -12 8 -12 -5z m47 -32 c0 -8 -4
-12 -9 -9 -4 3 -8 9 -8 15 0 5 4 9 8 9 5 0 9 -7 9 -15z"/>
<path d="M2025 140 c-3 -5 1 -10 10 -10 9 0 13 5 10 10 -3 6 -8 10 -10 10 -2
0 -7 -4 -10 -10z"/>
<path d="M2076 127 c3 -10 9 -15 12 -12 3 3 0 11 -7 18 -10 9 -11 8 -5 -6z"/>
<path d="M3431 75 c-65 -68 -80 -75 -101 -50 -17 20 -31 19 -23 -2 4 -10 2
-14 -5 -9 -6 3 -13 2 -16 -3 -3 -4 18 -8 47 -7 52 1 55 3 112 64 32 34 56 65
53 67 -3 3 -33 -24 -67 -60z"/>
<path d="M900 99 c-7 -11 -9 -23 -7 -26 3 -2 8 5 12 17 9 27 41 22 37 -5 -2
-19 -2 -19 9 -1 9 14 8 20 -2 27 -22 14 -38 10 -49 -12z"/>
<path d="M10 100 c-12 -8 -10 -10 10 -11 22 -1 23 -2 5 -7 -13 -5 -20 -16 -20
-34 -1 -14 3 -25 6 -22 4 2 10 0 13 -5 4 -5 -2 -12 -11 -14 -14 -4 -13 -5 4
-6 13 -1 23 6 26 16 4 17 5 17 6 1 1 -14 9 -18 34 -17 30 2 30 2 5 6 -39 6
-35 23 5 23 21 0 28 3 19 9 -8 4 -12 17 -11 27 2 11 0 25 -4 32 -10 14 -66 16
-87 2z m80 -41 c0 -17 -5 -20 -32 -17 -35 3 -52 28 -19 28 12 0 21 -4 21 -10
0 -5 5 -10 10 -10 6 0 10 7 10 15 0 8 2 15 5 15 3 0 5 -9 5 -21z"/>
<path d="M3335 90 c-3 -5 -1 -10 4 -10 6 0 11 -5 11 -11 0 -6 -7 -9 -14 -6
-10 4 -13 1 -9 -9 7 -18 32 -18 39 1 7 17 -22 50 -31 35z"/>
<path d="M1886 63 c-6 -14 -5 -15 5 -6 7 7 10 15 7 18 -3 3 -9 -2 -12 -12z"/>
<path d="M2120 54 c-6 -16 -13 -35 -15 -41 -3 -8 5 -13 20 -13 24 0 30 9 26
38 -1 7 3 11 10 10 6 -2 14 3 17 11 3 10 0 12 -10 8 -9 -3 -20 -1 -26 5 -8 8
-14 3 -22 -18z"/>
<path d="M2358 40 c2 -22 6 -40 8 -40 2 0 4 18 4 40 0 22 -3 40 -8 40 -4 0 -6
-18 -4 -40z"/>
<path d="M2940 65 c0 -8 2 -15 4 -15 2 0 6 7 10 15 3 8 1 15 -4 15 -6 0 -10
-7 -10 -15z"/>
<path d="M980 60 c0 -5 7 -7 15 -4 9 4 15 0 15 -9 0 -8 9 -17 19 -20 15 -4 18
-1 13 12 -3 9 -10 19 -16 23 -16 11 -46 10 -46 -2z"/>
<path d="M1444 55 c-10 -25 7 -40 23 -20 7 11 13 22 13 27 0 14 -30 9 -36 -7z"/>
<path d="M1524 55 c-4 -8 -11 -12 -16 -9 -6 4 -7 -2 -3 -17 11 -34 15 -36 31
-15 11 15 14 16 14 5 0 -11 10 -16 30 -16 17 0 30 4 30 8 0 4 3 15 7 24 5 15
1 17 -30 13 -26 -3 -37 0 -37 9 0 18 -19 16 -26 -2z"/>
<path d="M1720 59 c0 -6 -9 -9 -20 -6 -13 3 -24 -1 -30 -13 -13 -25 -13 -51 0
-30 6 10 10 11 10 3 0 -20 20 -15 20 5 1 16 2 16 14 -1 14 -18 14 -18 19 0 4
16 5 16 6 1 0 -10 5 -18 11 -18 5 0 7 8 3 18 -5 14 -3 13 10 -3 11 -13 16 -15
17 -6 0 10 3 11 14 2 10 -9 15 -8 20 4 3 9 0 15 -9 15 -8 0 -19 8 -24 18 -6 9
-11 11 -11 5 0 -7 -5 -13 -11 -13 -5 0 -8 4 -5 9 3 5 -1 12 -10 15 -21 8 -24
8 -24 -5z"/>
<path d="M933 54 c9 -16 96 -56 110 -51 7 2 -6 10 -28 17 -22 7 -51 20 -65 29
-13 9 -21 11 -17 5z"/>
<path d="M2955 39 c-5 -14 -2 -25 6 -30 23 -15 34 -10 13 6 -12 9 -14 14 -6
15 7 0 10 5 6 11 -4 7 -1 10 7 7 8 -3 13 -11 12 -17 -2 -6 0 -10 5 -10 18 3
33 -2 28 -9 -2 -4 4 -8 15 -8 10 0 19 1 19 2 0 5 -78 54 -87 54 -7 0 -15 -10
-18 -21z"/>
<path d="M3484 53 c4 -8 1 -13 -8 -13 -8 0 -21 -10 -27 -22 -11 -20 -10 -22 3
-10 13 10 17 10 20 0 3 -8 9 -4 17 11 10 18 10 25 0 35 -9 8 -10 8 -5 -1z"/>
<path d="M1070 36 c14 -8 27 -12 29 -10 6 6 -1 11 -29 18 l-25 7 25 -15z"/>
<path d="M614 25 c-4 -8 -11 -12 -17 -8 -6 3 -7 1 -3 -5 12 -19 35 -14 33 8
-2 24 -6 25 -13 5z"/>
<path d="M1115 20 c3 -4 0 -10 -6 -12 -7 -2 5 -4 25 -5 44 -1 45 2 6 16 -17 5
-28 6 -25 1z"/>
<path d="M1184 15 c11 -8 22 -12 25 -9 6 6 -19 24 -34 24 -5 -1 -1 -7 9 -15z"/>
<path d="M2601 14 c0 -11 3 -14 6 -6 3 7 2 16 -1 19 -3 4 -6 -2 -5 -13z"/>
<path d="M128 3 c6 -2 18 -2 25 0 6 3 1 5 -13 5 -14 0 -19 -2 -12 -5z"/>
</g>
</svg>
